<svg class="animated" id="freepik_stories-environmental-audit" xmlns="http://www.w3.org/2000/svg" viewBox="0 0 500 500" version="1.1" xmlns:xlink="http://www.w3.org/1999/xlink" xmlns:svgjs="http://svgjs.com/svgjs"><style>svg#freepik_stories-environmental-audit:not(.animated) .animable {opacity: 0;}svg#freepik_stories-environmental-audit.animated #freepik--background-simple--inject-1 {animation: 1s 1 forwards cubic-bezier(.36,-0.01,.5,1.38) slideUp;animation-delay: 0s;}svg#freepik_stories-environmental-audit.animated #freepik--Shadow--inject-1 {animation: 1s 1 forwards cubic-bezier(.36,-0.01,.5,1.38) slideDown;animation-delay: 0s;}svg#freepik_stories-environmental-audit.animated #freepik--Earth--inject-1 {animation: 1s 1 forwards cubic-bezier(.36,-0.01,.5,1.38) slideLeft;animation-delay: 0s;}svg#freepik_stories-environmental-audit.animated #freepik--wind-turbines--inject-1 {animation: 1s 1 forwards cubic-bezier(.36,-0.01,.5,1.38) lightSpeedLeft;animation-delay: 0s;}svg#freepik_stories-environmental-audit.animated #freepik--Clipboard--inject-1 {animation: 1s 1 forwards cubic-bezier(.36,-0.01,.5,1.38) zoomOut;animation-delay: 0s;}svg#freepik_stories-environmental-audit.animated #freepik--Character--inject-1 {animation: 1s 1 forwards cubic-bezier(.36,-0.01,.5,1.38) slideLeft;animation-delay: 0s;}            @keyframes slideUp {                0% {                    opacity: 0;                    transform: translateY(30px);                }                100% {                    opacity: 1;                    transform: inherit;                }            }                    @keyframes slideDown {                0% {                    opacity: 0;                    transform: translateY(-30px);                }                100% {                    opacity: 1;                    transform: translateY(0);                }            }                    @keyframes slideLeft {                0% {                    opacity: 0;                    transform: translateX(-30px);                }                100% {                    opacity: 1;                    transform: translateX(0);                }            }                    @keyframes lightSpeedLeft {              from {                transform: translate3d(-50%, 0, 0) skewX(20deg);                opacity: 0;              }              60% {                transform: skewX(-10deg);                opacity: 1;              }              80% {                transform: skewX(2deg);              }              to {                opacity: 1;                transform: translate3d(0, 0, 0);              }            }                    @keyframes zoomOut {                0% {                    opacity: 0;                    transform: scale(1.5);                }                100% {                    opacity: 1;                    transform: scale(1);                }            }        </style><g id="freepik--background-simple--inject-1" class="animable" style="transform-origin: 249.171px 231.689px;"><path d="M235,287.22c-24.34,3.58-37,51.49-89.32,64.18-50.72,12.3-90.9-35.25-90-87.91,1.08-64.42,48.7-143.36,96.17-152.37,49.66-9.42,79.6,34.93,109,39.07,30.5,4.28,70-48.2,129.45-31.94,46.57,12.74,65.94,61.12,42.23,144-15.1,52.79-49.86,101.07-114.12,89.62C270.24,343.31,262.05,283.24,235,287.22Z" style="fill: #1456A4; transform-origin: 249.171px 231.689px;" id="el7iz1k3losju" class="animable"></path><g id="eluhmpuijlgnr"><path d="M235,287.22c-24.34,3.58-37,51.49-89.32,64.18-50.72,12.3-90.9-35.25-90-87.91,1.08-64.42,48.7-143.36,96.17-152.37,49.66-9.42,79.6,34.93,109,39.07,30.5,4.28,70-48.2,129.45-31.94,46.57,12.74,65.94,61.12,42.23,144-15.1,52.79-49.86,101.07-114.12,89.62C270.24,343.31,262.05,283.24,235,287.22Z" style="fill: rgb(255, 255, 255); opacity: 0.9; transform-origin: 249.171px 231.689px;" class="animable" id="elyeasfr3f9m8"></path></g></g><g id="freepik--Shadow--inject-1" class="animable" style="transform-origin: 250px 412.39px;"><ellipse id="freepik--path--inject-1" cx="250" cy="412.39" rx="196.51" ry="11.32" style="fill: rgb(245, 245, 245); transform-origin: 250px 412.39px;" class="animable"></ellipse></g><g id="freepik--Earth--inject-1" class="animable" style="transform-origin: 141.89px 128.77px;"><circle cx="141.89" cy="128.77" r="62.05" style="fill: #1456A4; transform-origin: 141.89px 128.77px;" id="elvgr8f6qdkoq" class="animable"></circle><g id="eluq7jcml3v1m"><circle cx="141.89" cy="128.77" r="62.05" style="fill: rgb(255, 255, 255); opacity: 0.2; transform-origin: 141.89px 128.77px;" class="animable" id="eleed0c8hwfnb"></circle></g><path d="M159.59,148.57h0a1.56,1.56,0,0,1-1.3-.49l-1.83-2a1.52,1.52,0,0,0-1.05-.5l-2.42-.13a1.52,1.52,0,0,1-.51-.12L149.3,144a1.55,1.55,0,0,0-1.06-.05l-2.79.88a1.5,1.5,0,0,1-.47.08l-3.11,0a1.57,1.57,0,0,0-1.11.46l-2.65,2.71a1.53,1.53,0,0,1-.83.44l-1.51.26a1.54,1.54,0,0,1-1.32-.39l-.84-.8-1-2.4a.45.45,0,0,0-.52-.27l-2,.43a.45.45,0,0,1-.51-.63h0l.65-2.08,0-2.37-.7-.24-3.83,3.67h0a.81.81,0,0,1-1.35-.48l-.74-5.07a1.27,1.27,0,0,1,1-1.44l1.76-.32a1.27,1.27,0,0,0,.89-.65h0a1.28,1.28,0,0,1,1.66-.55l2.9,1.33a1.44,1.44,0,0,0,.42.11l1,.09a1.27,1.27,0,0,0,1.36-1.56l-.39-1.61a1.3,1.3,0,0,1,.13-.91l2.27-4.12.06-.14,1.44-3.63a1.1,1.1,0,0,1,.23-.37l2.58-2.92,1.16-2.86,6.48-3.13-1.58-1.18-.21-1A2.56,2.56,0,0,1,148,110.6l1.93-1.25a2.57,2.57,0,0,0,.69-3.63h0l-2.15-3.36a2.51,2.51,0,0,0-1.45-1.08l-1.87-.54a3.66,3.66,0,0,1-.46-.18l-3.36-1.72a2.55,2.55,0,0,0-3.37,1l-1.37,2.33-.09.17-1.27,2.58a2.55,2.55,0,0,1-3.36,1.2l-.29-.13a2,2,0,0,1-.32-.18l-2.36-1.52a2.55,2.55,0,0,1-.63-3.72l.88-1.13a1.93,1.93,0,0,1,.31-.33l2.81-2.53,1.48-1.44a2.36,2.36,0,0,1,.54-.4l.93-.51a2.57,2.57,0,0,0,1.23-2.88l-.23-.9a2.56,2.56,0,0,0-2.36-1.91l-.78,0a2.78,2.78,0,0,1-.69-.12L131,87.9a2.56,2.56,0,0,0-2.46.48l-1.65,1.4a2.57,2.57,0,0,1-1.72.61L120,90.25a2.24,2.24,0,0,1-.52-.06L114.3,89a2.39,2.39,0,0,0-1,0l-7.76,1.17a2.48,2.48,0,0,1-1.15-.09L101,88.93a2.62,2.62,0,0,0-1.36-.05l-1.31.31a2.57,2.57,0,0,0-1.79,1.54L91.5,103.35a2.32,2.32,0,0,0-.17.78l-.54,7.8v4.24h0a.58.58,0,0,0,1.09.35l2.46-4.66a2.58,2.58,0,0,1,.41-.57L95,111a2.56,2.56,0,0,1,4.17.69l3.24,7,1.88,1.46-1.16,9.08a1.24,1.24,0,0,0,.08.63l3.08,7.7a1.2,1.2,0,0,0,.38.51l7.59,6.17,3.33,4.14,6,.51,2.54.39,3,.27,2.59,1.25,2.55,1.07.5-.11a1.55,1.55,0,0,1,1.87,1.43l0,.72a1.49,1.49,0,0,1-.06.51l-.91,3.09a1.51,1.51,0,0,0,.2,1.29l1.93,2.89.16.2,3.34,3.53a1.51,1.51,0,0,0,.73.43l1.91.51a1.52,1.52,0,0,1,1.13,1.25l.4,2.57.43,3.54,0,.16,1,4.31a.88.88,0,0,0,0,.15l.47,1.36a1.49,1.49,0,0,0,.62.78l.59.39a1.58,1.58,0,0,0,1,.24l2-.18a1.54,1.54,0,0,0,1.3-2.09h0a1.45,1.45,0,0,1-.1-.41l-.06-.71a1.44,1.44,0,0,1,.16-.84l.87-1.7a1.57,1.57,0,0,1,.61-.64l1-.57a1.54,1.54,0,0,0,.5-.45L157,172l.1-.13,1.41-1.62a1.09,1.09,0,0,0,.13-.17l1.46-2.24a1.43,1.43,0,0,0,.21-.49l.5-2.19a1.53,1.53,0,0,1,.5-.82l3-2.62a1.62,1.62,0,0,0,.48-.75l1.86-6.68a2.33,2.33,0,0,1,.11-.28l0-.08a1.48,1.48,0,0,0,.13-.35l.49-2.16a1.53,1.53,0,0,0-.9-1.76l-.09,0A14.11,14.11,0,0,0,159.59,148.57ZM91.42,113.36v0Zm18,27.25.1,0Z" style="fill: #1456A4; transform-origin: 129.102px 134.444px;" id="eldn0x0wvwsp" class="animable"></path><path d="M176.22,77.08l-2,.52a1.63,1.63,0,0,1-1.36.52l-6.18-.68a1.59,1.59,0,0,0-.72.08l-4.5,1.63a1.44,1.44,0,0,0-.42.23l-1.75,1.33a1.6,1.6,0,0,0,.17,2.66l1,.6.18.12,5.23,4a1.61,1.61,0,0,1,.63,1.27l0,4.74a1.61,1.61,0,0,0,.53,1.19l5.66,5.15a1.6,1.6,0,0,0,2.56-.6l.13-.32a1.55,1.55,0,0,1,.61-.75l5.87-3.88a.15.15,0,0,1,.07,0l5.57-2.42a.4.4,0,0,0,.25-.42.42.42,0,0,1,.77-.28s2.93,3,2.34,3.94c0,.06-3.53,1.71-3.53,1.71a.43.43,0,0,0,.11.8s4.53.13,5.68,1c1.47,1.12,3.15,6.69,3.15,6.69a.42.42,0,0,1-.11.5l-.25.22-.08.05-.19.1a.43.43,0,0,0-.16.61l2,3a.37.37,0,0,1,.05.11l1.23,3.92h0l-2.27,2.6a.43.43,0,0,0-.1.36l1.11,5.55a.38.38,0,0,1-.07.31s-4,1.62-3.19,5.73c.43,2.21,6.76,3.56,9.5,4,.1-1.4.15-2.81.15-4.24A62,62,0,0,0,176.22,77.08Z" style="fill: #1456A4; transform-origin: 181.274px 105.025px;" id="elnfcnkn794di" class="animable"></path><g id="eleuf240zotv"><path d="M159.59,148.57h0a1.56,1.56,0,0,1-1.3-.49l-1.83-2a1.52,1.52,0,0,0-1.05-.5l-2.42-.13a1.52,1.52,0,0,1-.51-.12L149.3,144a1.55,1.55,0,0,0-1.06-.05l-2.79.88a1.5,1.5,0,0,1-.47.08l-3.11,0a1.57,1.57,0,0,0-1.11.46l-2.65,2.71a1.53,1.53,0,0,1-.83.44l-1.51.26a1.54,1.54,0,0,1-1.32-.39l-.84-.8-1-2.4a.45.45,0,0,0-.52-.27l-2,.43a.45.45,0,0,1-.51-.63h0l.65-2.08,0-2.37-.7-.24-3.83,3.67h0a.81.81,0,0,1-1.35-.48l-.74-5.07a1.27,1.27,0,0,1,1-1.44l1.76-.32a1.27,1.27,0,0,0,.89-.65h0a1.28,1.28,0,0,1,1.66-.55l2.9,1.33a1.44,1.44,0,0,0,.42.11l1,.09a1.27,1.27,0,0,0,1.36-1.56l-.39-1.61a1.3,1.3,0,0,1,.13-.91l2.27-4.12.06-.14,1.44-3.63a1.1,1.1,0,0,1,.23-.37l2.58-2.92,1.16-2.86,6.48-3.13-1.58-1.18-.21-1A2.56,2.56,0,0,1,148,110.6l1.93-1.25a2.57,2.57,0,0,0,.69-3.63h0l-2.15-3.36a2.51,2.51,0,0,0-1.45-1.08l-1.87-.54a3.66,3.66,0,0,1-.46-.18l-3.36-1.72a2.55,2.55,0,0,0-3.37,1l-1.37,2.33-.09.17-1.27,2.58a2.55,2.55,0,0,1-3.36,1.2l-.29-.13a2,2,0,0,1-.32-.18l-2.36-1.52a2.55,2.55,0,0,1-.63-3.72l.88-1.13a1.93,1.93,0,0,1,.31-.33l2.81-2.53,1.48-1.44a2.36,2.36,0,0,1,.54-.4l.93-.51a2.57,2.57,0,0,0,1.23-2.88l-.23-.9a2.56,2.56,0,0,0-2.36-1.91l-.78,0a2.78,2.78,0,0,1-.69-.12L131,87.9a2.56,2.56,0,0,0-2.46.48l-1.65,1.4a2.57,2.57,0,0,1-1.72.61L120,90.25a2.24,2.24,0,0,1-.52-.06L114.3,89a2.39,2.39,0,0,0-1,0l-7.76,1.17a2.48,2.48,0,0,1-1.15-.09L101,88.93a2.62,2.62,0,0,0-1.36-.05l-1.31.31a2.57,2.57,0,0,0-1.79,1.54L91.5,103.35a2.32,2.32,0,0,0-.17.78l-.54,7.8v4.24h0a.58.58,0,0,0,1.09.35l2.46-4.66a2.58,2.58,0,0,1,.41-.57L95,111a2.56,2.56,0,0,1,4.17.69l3.24,7,1.88,1.46-1.16,9.08a1.24,1.24,0,0,0,.08.63l3.08,7.7a1.2,1.2,0,0,0,.38.51l7.59,6.17,3.33,4.14,6,.51,2.54.39,3,.27,2.59,1.25,2.55,1.07.5-.11a1.55,1.55,0,0,1,1.87,1.43l0,.72a1.49,1.49,0,0,1-.06.51l-.91,3.09a1.51,1.51,0,0,0,.2,1.29l1.93,2.89.16.2,3.34,3.53a1.51,1.51,0,0,0,.73.43l1.91.51a1.52,1.52,0,0,1,1.13,1.25l.4,2.57.43,3.54,0,.16,1,4.31a.88.88,0,0,0,0,.15l.47,1.36a1.49,1.49,0,0,0,.62.78l.59.39a1.58,1.58,0,0,0,1,.24l2-.18a1.54,1.54,0,0,0,1.3-2.09h0a1.45,1.45,0,0,1-.1-.41l-.06-.71a1.44,1.44,0,0,1,.16-.84l.87-1.7a1.57,1.57,0,0,1,.61-.64l1-.57a1.54,1.54,0,0,0,.5-.45L157,172l.1-.13,1.41-1.62a1.09,1.09,0,0,0,.13-.17l1.46-2.24a1.43,1.43,0,0,0,.21-.49l.5-2.19a1.53,1.53,0,0,1,.5-.82l3-2.62a1.62,1.62,0,0,0,.48-.75l1.86-6.68a2.33,2.33,0,0,1,.11-.28l0-.08a1.48,1.48,0,0,0,.13-.35l.49-2.16a1.53,1.53,0,0,0-.9-1.76l-.09,0A14.11,14.11,0,0,0,159.59,148.57ZM91.42,113.36v0Zm18,27.25.1,0Z" style="fill: rgb(255, 255, 255); opacity: 0.5; transform-origin: 129.102px 134.444px;" class="animable" id="el7oys6eaj98m"></path></g><g id="elny3pu8lo32j"><path d="M176.22,77.08l-2,.52a1.63,1.63,0,0,1-1.36.52l-6.18-.68a1.59,1.59,0,0,0-.72.08l-4.5,1.63a1.44,1.44,0,0,0-.42.23l-1.75,1.33a1.6,1.6,0,0,0,.17,2.66l1,.6.18.12,5.23,4a1.61,1.61,0,0,1,.63,1.27l0,4.74a1.61,1.61,0,0,0,.53,1.19l5.66,5.15a1.6,1.6,0,0,0,2.56-.6l.13-.32a1.55,1.55,0,0,1,.61-.75l5.87-3.88a.15.15,0,0,1,.07,0l5.57-2.42a.4.4,0,0,0,.25-.42.42.42,0,0,1,.77-.28s2.93,3,2.34,3.94c0,.06-3.53,1.71-3.53,1.71a.43.43,0,0,0,.11.8s4.53.13,5.68,1c1.47,1.12,3.15,6.69,3.15,6.69a.42.42,0,0,1-.11.5l-.25.22-.08.05-.19.1a.43.43,0,0,0-.16.61l2,3a.37.37,0,0,1,.05.11l1.23,3.92h0l-2.27,2.6a.43.43,0,0,0-.1.36l1.11,5.55a.38.38,0,0,1-.07.31s-4,1.62-3.19,5.73c.43,2.21,6.76,3.56,9.5,4,.1-1.4.15-2.81.15-4.24A62,62,0,0,0,176.22,77.08Z" style="fill: rgb(255, 255, 255); opacity: 0.5; transform-origin: 181.274px 105.025px;" class="animable" id="eloj0yy07a70m"></path></g></g><g id="freepik--wind-turbines--inject-1" class="animable" style="transform-origin: 130.939px 278.17px;"><path d="M176.66,254.6h-4.23l-4.17,154.9a2.9,2.9,0,0,0,2.9,3h6.76a2.91,2.91,0,0,0,2.91-3Z" style="fill: #1456A4; transform-origin: 174.545px 333.55px;" id="elys3zvxxqudn" class="animable"></path><g id="elhaj1lkyzst"><path d="M176.66,254.6h-4.23l-4.17,154.9a2.9,2.9,0,0,0,2.9,3h6.76a2.91,2.91,0,0,0,2.91-3Z" style="fill: rgb(255, 255, 255); opacity: 0.5; transform-origin: 174.545px 333.55px;" class="animable" id="el841alq045m"></path></g><path d="M188.44,250.15l-5.92-.27-.58-1.75a3.16,3.16,0,0,0-2.72-2.14l-3.69-.32a3.15,3.15,0,0,0-3.12,1.81l-.89,1.89a3.79,3.79,0,1,0,.09,7.58l16.83-.79a3,3,0,0,0,0-6Z" style="fill: #1456A4; transform-origin: 179.607px 251.305px;" id="el6v7ni7ce0c" class="animable"></path><g id="elw1pocj1hr5r"><path d="M188.44,250.15l-5.92-.27-.58-1.75a3.16,3.16,0,0,0-2.72-2.14l-3.69-.32a3.15,3.15,0,0,0-3.12,1.81l-.89,1.89a3.79,3.79,0,1,0,.09,7.58l16.83-.79a3,3,0,0,0,0-6Z" style="fill: rgb(255, 255, 255); opacity: 0.2; transform-origin: 179.607px 251.305px;" class="animable" id="elz2j15rxe4q"></path></g><g id="elzsoh4vvzpg"><path d="M188.44,256.16a3,3,0,0,0,2.47-1.54l-15.78.21a3.75,3.75,0,0,0,.4-1.68,3.95,3.95,0,1,0-3.92,3.8Z" style="opacity: 0.2; transform-origin: 179.271px 253px;" class="animable" id="el0mfoqy77vf9"></path></g><path d="M170.63,252.07h0a1.89,1.89,0,0,1-1.89-1.89V207.53a4.91,4.91,0,0,1,4.91-4.92h0a4.92,4.92,0,0,1,4.87,5.61l-6,42.23A1.89,1.89,0,0,1,170.63,252.07Z" style="fill: #1456A4; transform-origin: 173.654px 227.34px;" id="ell8tt2ucz56g" class="animable"></path><g id="el9kuspxx4k7r"><path d="M170.63,252.07h0a1.89,1.89,0,0,1-1.89-1.89V207.53a4.91,4.91,0,0,1,4.91-4.92h0a4.92,4.92,0,0,1,4.87,5.61l-6,42.23A1.89,1.89,0,0,1,170.63,252.07Z" style="fill: rgb(255, 255, 255); opacity: 0.3; transform-origin: 173.654px 227.34px;" class="animable" id="elyr70ijen4w"></path></g><g id="elw6f34yhp94"><path d="M174.12,202.64a3.59,3.59,0,0,0-.47,0,4.91,4.91,0,0,0-4.91,4.92v42.65a1.86,1.86,0,0,0,.35,1.09,1.89,1.89,0,0,0,1.29-1.53l6-42.23A4.89,4.89,0,0,0,174.12,202.64Z" style="fill: rgb(255, 255, 255); opacity: 0.6; transform-origin: 172.588px 226.966px;" class="animable" id="ele53qafn2rgh"></path></g><path d="M171.82,254.05h0a1.89,1.89,0,0,0,.62,2.6L208.77,279a4.92,4.92,0,0,0,6.76-1.61h0a4.92,4.92,0,0,0-2.23-7.09l-39.12-17A1.88,1.88,0,0,0,171.82,254.05Z" style="fill: #1456A4; transform-origin: 193.9px 266.435px;" id="elel09knyj1h" class="animable"></path><g id="el4simhzkeciw"><path d="M171.82,254.05h0a1.89,1.89,0,0,0,.62,2.6L208.77,279a4.92,4.92,0,0,0,6.76-1.61h0a4.92,4.92,0,0,0-2.23-7.09l-39.12-17A1.88,1.88,0,0,0,171.82,254.05Z" style="fill: rgb(255, 255, 255); opacity: 0.3; transform-origin: 193.9px 266.435px;" class="animable" id="elgr47ddhzkxu"></path></g><g id="elnqgmkrcwske"><path d="M213.3,270.3l-39.12-17a1,1,0,1,0-1.07,1.55l36.33,22.35a4.1,4.1,0,1,0,3.86-6.91Z" style="fill: rgb(255, 255, 255); opacity: 0.6; transform-origin: 194.387px 265.626px;" class="animable" id="elcdpfk6yuyxg"></path></g><path d="M169.06,254.05h0a1.89,1.89,0,0,1-.62,2.6L132.11,279a4.92,4.92,0,0,1-6.76-1.61h0a4.92,4.92,0,0,1,2.23-7.09l39.12-17A1.88,1.88,0,0,1,169.06,254.05Z" style="fill: #1456A4; transform-origin: 146.98px 266.435px;" id="eliwwcp5o8pp" class="animable"></path><g id="elo05xh6ikt0m"><path d="M169.06,254.05h0a1.89,1.89,0,0,1-.62,2.6L132.11,279a4.92,4.92,0,0,1-6.76-1.61h0a4.92,4.92,0,0,1,2.23-7.09l39.12-17A1.88,1.88,0,0,1,169.06,254.05Z" style="fill: rgb(255, 255, 255); opacity: 0.3; transform-origin: 146.98px 266.435px;" class="animable" id="elib060r6htpb"></path></g><g id="elw25mtph6hro"><path d="M166.7,253.31l-39.12,17a4,4,0,1,0,3.45,6.91l36.33-22.35a1,1,0,1,0-.66-1.55Z" style="fill: rgb(255, 255, 255); opacity: 0.6; transform-origin: 146.449px 265.557px;" class="animable" id="eltfofyzhoqtp"></path></g><g id="elwcp0053qd5"><g style="opacity: 0.5; transform-origin: 174.545px 307.965px;" class="animable" id="elok60errick"><path d="M171.11,303.47l0,.92c1.28.11,2.52.16,3.52.16s2.16-.05,3.39-.15l0-.92c-1,.09-2.12.14-3.36.14S172.15,303.56,171.11,303.47Z" id="el4mwut5one09" class="animable" style="transform-origin: 174.565px 304.01px;"></path><path d="M178.21,312.32l-.15-5.57c-1,.09-2.14.15-3.45.15s-2.56-.07-3.58-.17l-.15,5.59c1.24.1,2.51.14,3.73.14S177,312.41,178.21,312.32Z" id="elnr49fq2beyr" class="animable" style="transform-origin: 174.545px 309.595px;"></path></g></g><path d="M112.36,210.11h-5.43l-5.36,199.12a3.74,3.74,0,0,0,3.73,3.84H114a3.74,3.74,0,0,0,3.74-3.84Z" style="fill: #1456A4; transform-origin: 109.655px 311.59px;" id="elme94xx8o6bb" class="animable"></path><g id="elqkira6koobc"><path d="M112.36,210.11h-5.43l-5.36,199.12a3.74,3.74,0,0,0,3.73,3.84H114a3.74,3.74,0,0,0,3.74-3.84Z" style="fill: rgb(255, 255, 255); opacity: 0.5; transform-origin: 109.655px 311.59px;" class="animable" id="elc0d98koqksc"></path></g><path d="M127.52,204.39,119.9,204l-.75-2.24a4,4,0,0,0-3.5-2.75l-4.74-.41a4.05,4.05,0,0,0-4,2.32l-1.14,2.43a4.87,4.87,0,1,0,.12,9.74l21.64-1a3.86,3.86,0,0,0,0-7.72Z" style="fill: #1456A4; transform-origin: 116.173px 205.838px;" id="elwy8giebkla" class="animable"></path><g id="eldp1yyel0cz"><path d="M127.52,204.39,119.9,204l-.75-2.24a4,4,0,0,0-3.5-2.75l-4.74-.41a4.05,4.05,0,0,0-4,2.32l-1.14,2.43a4.87,4.87,0,1,0,.12,9.74l21.64-1a3.86,3.86,0,0,0,0-7.72Z" style="fill: rgb(255, 255, 255); opacity: 0.2; transform-origin: 116.173px 205.838px;" class="animable" id="eldh9vo18tkh6"></path></g><g id="elwkfguwrq5td"><path d="M127.52,212.11a3.85,3.85,0,0,0,3.17-2l-20.29.28a5.12,5.12,0,1,0-4.52,2.71Z" style="opacity: 0.2; transform-origin: 115.726px 207.98px;" class="animable" id="elrhuqhnaji3"></path></g><path d="M104.61,206.85h0a2.42,2.42,0,0,1-2.43-2.42V149.59a6.32,6.32,0,0,1,6.32-6.32h0a6.32,6.32,0,0,1,6.26,7.22L107,204.77A2.43,2.43,0,0,1,104.61,206.85Z" style="fill: #1456A4; transform-origin: 108.502px 175.06px;" id="elv7q696aw3os" class="animable"></path><g id="elswv1g99qtgh"><path d="M104.61,206.85h0a2.42,2.42,0,0,1-2.43-2.42V149.59a6.32,6.32,0,0,1,6.32-6.32h0a6.32,6.32,0,0,1,6.26,7.22L107,204.77A2.43,2.43,0,0,1,104.61,206.85Z" style="fill: rgb(255, 255, 255); opacity: 0.3; transform-origin: 108.502px 175.06px;" class="animable" id="elngthqvfdpk"></path></g><g id="elcwpfqf5ubea"><path d="M109.1,143.31a5.66,5.66,0,0,0-.6,0,6.32,6.32,0,0,0-6.32,6.32v54.84a2.38,2.38,0,0,0,.45,1.39,2.42,2.42,0,0,0,1.67-2L112,149.58A6.3,6.3,0,0,0,109.1,143.31Z" style="fill: rgb(255, 255, 255); opacity: 0.6; transform-origin: 107.124px 174.581px;" class="animable" id="el5hcv4vu8ag8"></path></g><path d="M106.15,209.4h0a2.42,2.42,0,0,0,.79,3.34l46.7,28.73a6.32,6.32,0,0,0,8.7-2.07h0a6.33,6.33,0,0,0-2.87-9.11l-50.29-21.84A2.42,2.42,0,0,0,106.15,209.4Z" style="fill: #1456A4; transform-origin: 134.529px 225.329px;" id="el10vrmiktoyz" class="animable"></path><g id="elc57k39j1czi"><path d="M106.15,209.4h0a2.42,2.42,0,0,0,.79,3.34l46.7,28.73a6.32,6.32,0,0,0,8.7-2.07h0a6.33,6.33,0,0,0-2.87-9.11l-50.29-21.84A2.42,2.42,0,0,0,106.15,209.4Z" style="fill: rgb(255, 255, 255); opacity: 0.3; transform-origin: 134.529px 225.329px;" class="animable" id="elhzpekid64ff"></path></g><g id="elh6jo6i51tz"><path d="M159.47,230.29l-50.29-21.84a2.39,2.39,0,0,0-2.48.34,2.38,2.38,0,0,0,1.11,1.65l46.7,28.73a5.27,5.27,0,1,0,5-8.88Z" style="fill: rgb(255, 255, 255); opacity: 0.6; transform-origin: 135.076px 224.454px;" class="animable" id="elhzwpwasod2b"></path></g><path d="M102.6,209.4h0a2.42,2.42,0,0,1-.79,3.34l-46.7,28.73a6.32,6.32,0,0,1-8.7-2.07h0a6.32,6.32,0,0,1,2.87-9.11l50.29-21.84A2.42,2.42,0,0,1,102.6,209.4Z" style="fill: #1456A4; transform-origin: 74.2188px 225.329px;" id="el3ehpw2xf4he" class="animable"></path><g id="el2iuea3beecc"><path d="M102.6,209.4h0a2.42,2.42,0,0,1-.79,3.34l-46.7,28.73a6.32,6.32,0,0,1-8.7-2.07h0a6.32,6.32,0,0,1,2.87-9.11l50.29-21.84A2.42,2.42,0,0,1,102.6,209.4Z" style="fill: rgb(255, 255, 255); opacity: 0.3; transform-origin: 74.2188px 225.329px;" class="animable" id="elnkj720mchcn"></path></g><g id="elefy3wq4mrmg"><path d="M99.57,208.45,49.28,230.29a6.34,6.34,0,0,0-3.47,7.85,6.31,6.31,0,0,0,7.9,1l46.7-28.73a2.41,2.41,0,0,0,1.15-2A2.42,2.42,0,0,0,99.57,208.45Z" style="fill: rgb(255, 255, 255); opacity: 0.6; transform-origin: 73.5167px 224.154px;" class="animable" id="elcmgoeihde2"></path></g><g id="el6ly8aduiuot"><g style="opacity: 0.5; transform-origin: 109.645px 278.71px;" class="animable" id="ely7lyotut4yk"><path d="M105.24,272.93l0,1.18c1.64.14,3.24.2,4.52.2s2.78-.05,4.36-.19l0-1.17c-1.3.11-2.73.17-4.33.17S106.57,273.05,105.24,272.93Z" id="elwoho1b5dyqm" class="animable" style="transform-origin: 109.68px 273.62px;"></path><path d="M114.36,284.31l-.19-7.17c-1.28.12-2.75.2-4.44.2s-3.29-.09-4.6-.22l-.2,7.18c1.6.13,3.23.19,4.8.19S112.82,284.43,114.36,284.31Z" id="elad6esodbt6c" class="animable" style="transform-origin: 109.645px 280.805px;"></path></g></g></g><g id="freepik--Clipboard--inject-1" class="animable" style="transform-origin: 277.38px 245.434px;"><polygon points="197.99 158.02 339.7 158.02 359.56 355.77 351.99 364.08 210.27 364.08 195.2 162.48 197.99 158.02" style="fill: #1456A4; transform-origin: 277.38px 261.05px;" id="el917jjlok4i4" class="animable"></polygon><g id="elvpd4jp1o0zr"><polygon points="217.85 355.77 359.56 355.77 339.7 158.02 197.99 158.02 217.85 355.77" style="fill: rgb(255, 255, 255); opacity: 0.7; transform-origin: 278.775px 256.895px;" class="animable" id="elq4ata1b5r1r"></polygon></g><g id="elzenyhh5gh3"><g style="opacity: 0.5; transform-origin: 285.185px 360.5px;" class="animable" id="elr2n9djfzp18"><path d="M219.56,361.25H350.81a.75.75,0,0,0,0-1.5H219.56a.75.75,0,0,0,0,1.5Z" style="fill: rgb(255, 255, 255); transform-origin: 285.185px 360.5px;" id="elylw0jbi9en" class="animable"></path></g></g><g id="el7e7xl48hoyt"><g style="opacity: 0.5; transform-origin: 209.377px 309.246px;" class="animable" id="eli50cx26dpfk"><path d="M204.25,259.76q3.83,43.35,7.64,86.72L213,358.75c.08.95,1.58,1,1.5,0q-3.83-43.37-7.64-86.73l-1.08-12.26c-.08-1-1.58-1-1.5,0Z" style="fill: rgb(255, 255, 255); transform-origin: 209.377px 309.246px;" id="elwigeimztnfs" class="animable"></path></g></g><path d="M293.3,189.6h13.13a2.59,2.59,0,0,0,2.62-2.86l-.14-1.61a3.2,3.2,0,0,0-3.12-2.87H292.66a2.59,2.59,0,0,0-2.62,2.87l.14,1.61A3.19,3.19,0,0,0,293.3,189.6Z" style="fill: #1456A4; transform-origin: 299.544px 185.93px;" id="el3xoj98c2y49" class="animable"></path><path d="M292.07,204.76h15.69a2.59,2.59,0,0,0,2.61-2.87l-.14-1.61a3.19,3.19,0,0,0-3.12-2.86H291.42a2.58,2.58,0,0,0-2.61,2.86l.14,1.61A3.2,3.2,0,0,0,292.07,204.76Z" style="fill: #1456A4; transform-origin: 299.59px 201.09px;" id="elkm4i2kmmja" class="animable"></path><path d="M296,219.91h13.13A2.58,2.58,0,0,0,311.7,217l-.14-1.6a3.19,3.19,0,0,0-3.12-2.87H295.31a2.59,2.59,0,0,0-2.62,2.87l.15,1.6A3.18,3.18,0,0,0,296,219.91Z" style="fill: #1456A4; transform-origin: 302.198px 216.22px;" id="el3u32k2esxln" class="animable"></path><path d="M293.49,235.06h16.92A2.58,2.58,0,0,0,313,232.2l-.14-1.61a3.19,3.19,0,0,0-3.11-2.87H292.85a2.59,2.59,0,0,0-2.62,2.87l.14,1.61A3.19,3.19,0,0,0,293.49,235.06Z" style="fill: #1456A4; transform-origin: 301.615px 231.39px;" id="elxgb51uvksx" class="animable"></path><path d="M297.54,250.21h39.24a2.58,2.58,0,0,0,2.62-2.86l-.14-1.61a3.19,3.19,0,0,0-3.12-2.86H296.89a2.58,2.58,0,0,0-2.61,2.86l.14,1.61A3.19,3.19,0,0,0,297.54,250.21Z" style="fill: #1456A4; transform-origin: 316.84px 246.545px;" id="elz0hmi6053v9" class="animable"></path><path d="M293.53,265.37h44.58a2.59,2.59,0,0,0,2.61-2.87l-.14-1.61a3.18,3.18,0,0,0-3.11-2.86H292.88a2.58,2.58,0,0,0-2.61,2.86l.14,1.61A3.2,3.2,0,0,0,293.53,265.37Z" style="fill: #1456A4; transform-origin: 315.495px 261.7px;" id="el63c5uzws5st" class="animable"></path><path d="M298.69,280.52h40.75a2.58,2.58,0,0,0,2.61-2.87l-.14-1.6a3.19,3.19,0,0,0-3.12-2.87H298.05a2.58,2.58,0,0,0-2.61,2.87l.14,1.6A3.19,3.19,0,0,0,298.69,280.52Z" style="fill: #1456A4; transform-origin: 318.745px 276.85px;" id="elmpmdfgxdj3" class="animable"></path><g id="ellmlficodech"><g style="opacity: 0.4; transform-origin: 315.431px 231.39px;" class="animable" id="el63zx26hmyrs"><path d="M293.3,189.6h13.13a2.59,2.59,0,0,0,2.62-2.86l-.14-1.61a3.2,3.2,0,0,0-3.12-2.87H292.66a2.59,2.59,0,0,0-2.62,2.87l.14,1.61A3.19,3.19,0,0,0,293.3,189.6Z" style="fill: rgb(255, 255, 255); transform-origin: 299.544px 185.93px;" id="elrfzyzdueus" class="animable"></path><path d="M292.07,204.76h15.69a2.59,2.59,0,0,0,2.61-2.87l-.14-1.61a3.19,3.19,0,0,0-3.12-2.86H291.42a2.58,2.58,0,0,0-2.61,2.86l.14,1.61A3.2,3.2,0,0,0,292.07,204.76Z" style="fill: rgb(255, 255, 255); transform-origin: 299.59px 201.09px;" id="elvullynavku" class="animable"></path><path d="M296,219.91h13.13A2.58,2.58,0,0,0,311.7,217l-.14-1.6a3.19,3.19,0,0,0-3.12-2.87H295.31a2.59,2.59,0,0,0-2.62,2.87l.15,1.6A3.18,3.18,0,0,0,296,219.91Z" style="fill: rgb(255, 255, 255); transform-origin: 302.198px 216.22px;" id="elcicwe9z1hbr" class="animable"></path><path d="M293.49,235.06h16.92A2.58,2.58,0,0,0,313,232.2l-.14-1.61a3.19,3.19,0,0,0-3.11-2.87H292.85a2.59,2.59,0,0,0-2.62,2.87l.14,1.61A3.19,3.19,0,0,0,293.49,235.06Z" style="fill: rgb(255, 255, 255); transform-origin: 301.615px 231.39px;" id="ellt7060zkr" class="animable"></path><path d="M297.54,250.21h39.24a2.58,2.58,0,0,0,2.62-2.86l-.14-1.61a3.19,3.19,0,0,0-3.12-2.86H296.89a2.58,2.58,0,0,0-2.61,2.86l.14,1.61A3.19,3.19,0,0,0,297.54,250.21Z" style="fill: rgb(255, 255, 255); transform-origin: 316.84px 246.545px;" id="el4f3gizoq62y" class="animable"></path><path d="M293.53,265.37h44.58a2.59,2.59,0,0,0,2.61-2.87l-.14-1.61a3.18,3.18,0,0,0-3.11-2.86H292.88a2.58,2.58,0,0,0-2.61,2.86l.14,1.61A3.2,3.2,0,0,0,293.53,265.37Z" style="fill: rgb(255, 255, 255); transform-origin: 315.495px 261.7px;" id="elsf90z4tqx5" class="animable"></path><path d="M298.69,280.52h40.75a2.58,2.58,0,0,0,2.61-2.87l-.14-1.6a3.19,3.19,0,0,0-3.12-2.87H298.05a2.58,2.58,0,0,0-2.61,2.87l.14,1.6A3.19,3.19,0,0,0,298.69,280.52Z" style="fill: rgb(255, 255, 255); transform-origin: 318.745px 276.85px;" id="elzrvjilbry3" class="animable"></path></g></g><path d="M267.26,189.6h9.33a2.59,2.59,0,0,0,2.62-2.86l-.15-1.61a3.19,3.19,0,0,0-3.11-2.87h-9.33a2.59,2.59,0,0,0-2.61,2.87l.14,1.61A3.18,3.18,0,0,0,267.26,189.6Z" style="fill: rgb(38, 50, 56); transform-origin: 271.609px 185.93px;" id="elwuuw2nch4n" class="animable"></path><path d="M268.59,204.76h9.33a2.59,2.59,0,0,0,2.61-2.87l-.14-1.61a3.19,3.19,0,0,0-3.12-2.86H268a2.58,2.58,0,0,0-2.62,2.86l.14,1.61A3.2,3.2,0,0,0,268.59,204.76Z" style="fill: rgb(38, 50, 56); transform-origin: 272.955px 201.09px;" id="elv56m0vkd8xa" class="animable"></path><path d="M269.91,219.91h9.33a2.59,2.59,0,0,0,2.62-2.87l-.14-1.6a3.19,3.19,0,0,0-3.12-2.87h-9.33a2.58,2.58,0,0,0-2.61,2.87l.14,1.6A3.19,3.19,0,0,0,269.91,219.91Z" style="fill: rgb(38, 50, 56); transform-origin: 274.259px 216.24px;" id="el9ysfxxt1tqd" class="animable"></path><path d="M271.24,235.06h9.33a2.58,2.58,0,0,0,2.61-2.86l-.14-1.61a3.19,3.19,0,0,0-3.11-2.87H270.6a2.59,2.59,0,0,0-2.62,2.87l.14,1.61A3.19,3.19,0,0,0,271.24,235.06Z" style="fill: rgb(38, 50, 56); transform-origin: 275.58px 231.39px;" id="el8o46k47pc2w" class="animable"></path><path d="M272.57,250.21h9.32a2.58,2.58,0,0,0,2.62-2.86l-.14-1.61a3.19,3.19,0,0,0-3.12-2.86h-9.33a2.58,2.58,0,0,0-2.61,2.86l.14,1.61A3.19,3.19,0,0,0,272.57,250.21Z" style="fill: rgb(38, 50, 56); transform-origin: 276.91px 246.545px;" id="elslfow5nb3n" class="animable"></path><path d="M273.89,265.37h9.33a2.59,2.59,0,0,0,2.61-2.87l-.14-1.61a3.18,3.18,0,0,0-3.11-2.86h-9.33a2.59,2.59,0,0,0-2.62,2.86l.14,1.61A3.2,3.2,0,0,0,273.89,265.37Z" style="fill: rgb(38, 50, 56); transform-origin: 278.231px 261.7px;" id="eloxmn58wm59" class="animable"></path><path d="M275.22,280.52h9.32a2.58,2.58,0,0,0,2.62-2.87l-.14-1.6a3.19,3.19,0,0,0-3.12-2.87h-9.32a2.58,2.58,0,0,0-2.62,2.87l.14,1.6A3.19,3.19,0,0,0,275.22,280.52Z" style="fill: rgb(38, 50, 56); transform-origin: 279.56px 276.85px;" id="el547hqhwzeow" class="animable"></path><g id="elt9e8fjy7i6d"><g style="opacity: 0.4; transform-origin: 275.586px 231.39px;" class="animable" id="elnlj3lbwkux"><path d="M267.26,189.6h9.33a2.59,2.59,0,0,0,2.62-2.86l-.15-1.61a3.19,3.19,0,0,0-3.11-2.87h-9.33a2.59,2.59,0,0,0-2.61,2.87l.14,1.61A3.18,3.18,0,0,0,267.26,189.6Z" style="fill: rgb(255, 255, 255); transform-origin: 271.609px 185.93px;" id="elg4eq3szsh0k" class="animable"></path><path d="M268.59,204.76h9.33a2.59,2.59,0,0,0,2.61-2.87l-.14-1.61a3.19,3.19,0,0,0-3.12-2.86H268a2.58,2.58,0,0,0-2.62,2.86l.14,1.61A3.2,3.2,0,0,0,268.59,204.76Z" style="fill: rgb(255, 255, 255); transform-origin: 272.955px 201.09px;" id="elfloe6gw4s9w" class="animable"></path><path d="M269.91,219.91h9.33a2.59,2.59,0,0,0,2.62-2.87l-.14-1.6a3.19,3.19,0,0,0-3.12-2.87h-9.33a2.58,2.58,0,0,0-2.61,2.87l.14,1.6A3.19,3.19,0,0,0,269.91,219.91Z" style="fill: rgb(255, 255, 255); transform-origin: 274.259px 216.24px;" id="elddqy1dgtli6" class="animable"></path><path d="M271.24,235.06h9.33a2.58,2.58,0,0,0,2.61-2.86l-.14-1.61a3.19,3.19,0,0,0-3.11-2.87H270.6a2.59,2.59,0,0,0-2.62,2.87l.14,1.61A3.19,3.19,0,0,0,271.24,235.06Z" style="fill: rgb(255, 255, 255); transform-origin: 275.58px 231.39px;" id="elv7ml80mduh" class="animable"></path><path d="M272.57,250.21h9.32a2.58,2.58,0,0,0,2.62-2.86l-.14-1.61a3.19,3.19,0,0,0-3.12-2.86h-9.33a2.58,2.58,0,0,0-2.61,2.86l.14,1.61A3.19,3.19,0,0,0,272.57,250.21Z" style="fill: rgb(255, 255, 255); transform-origin: 276.91px 246.545px;" id="elo442s0p43h" class="animable"></path><path d="M273.89,265.37h9.33a2.59,2.59,0,0,0,2.61-2.87l-.14-1.61a3.18,3.18,0,0,0-3.11-2.86h-9.33a2.59,2.59,0,0,0-2.62,2.86l.14,1.61A3.2,3.2,0,0,0,273.89,265.37Z" style="fill: rgb(255, 255, 255); transform-origin: 278.231px 261.7px;" id="el7942bvuyz2g" class="animable"></path><path d="M275.22,280.52h9.32a2.58,2.58,0,0,0,2.62-2.87l-.14-1.6a3.19,3.19,0,0,0-3.12-2.87h-9.32a2.58,2.58,0,0,0-2.62,2.87l.14,1.6A3.19,3.19,0,0,0,275.22,280.52Z" style="fill: rgb(255, 255, 255); transform-origin: 279.56px 276.85px;" id="el48v4jva7rpt" class="animable"></path></g></g><path d="M227.42,299.86h44a2.58,2.58,0,0,0,2.61-2.87l-.14-1.61a3.18,3.18,0,0,0-3.11-2.86h-44a2.59,2.59,0,0,0-2.62,2.86l.15,1.61A3.18,3.18,0,0,0,227.42,299.86Z" style="fill: rgb(38, 50, 56); transform-origin: 249.096px 296.19px;" id="elsfn99ubyyep" class="animable"></path><path d="M226.19,315h46.59a2.58,2.58,0,0,0,2.62-2.86l-.14-1.61a3.19,3.19,0,0,0-3.12-2.87h-46.6a2.58,2.58,0,0,0-2.61,2.87l.14,1.61A3.19,3.19,0,0,0,226.19,315Z" style="fill: rgb(38, 50, 56); transform-origin: 249.164px 311.33px;" id="el7q6dzwdodld" class="animable"></path><path d="M230.07,330.16h44a2.59,2.59,0,0,0,2.62-2.86l-.15-1.61a3.19,3.19,0,0,0-3.11-2.87h-44a2.59,2.59,0,0,0-2.61,2.87l.14,1.61A3.18,3.18,0,0,0,230.07,330.16Z" style="fill: rgb(38, 50, 56); transform-origin: 251.754px 326.49px;" id="elh3unb7t9hn" class="animable"></path><path d="M227.61,345.32h47.83a2.59,2.59,0,0,0,2.61-2.87l-.14-1.61a3.19,3.19,0,0,0-3.12-2.86H227a2.59,2.59,0,0,0-2.62,2.86l.14,1.61A3.2,3.2,0,0,0,227.61,345.32Z" style="fill: rgb(38, 50, 56); transform-origin: 251.216px 341.65px;" id="elavepj8vk90g" class="animable"></path><g id="el74qiomm8ycu"><g style="opacity: 0.4; transform-origin: 250.489px 318.92px;" class="animable" id="elbzoa5swm99"><path d="M227.42,299.86h44a2.58,2.58,0,0,0,2.61-2.87l-.14-1.61a3.18,3.18,0,0,0-3.11-2.86h-44a2.59,2.59,0,0,0-2.62,2.86l.15,1.61A3.18,3.18,0,0,0,227.42,299.86Z" style="fill: rgb(255, 255, 255); transform-origin: 249.096px 296.19px;" id="ela4wlu4h7d7s" class="animable"></path><path d="M226.19,315h46.59a2.58,2.58,0,0,0,2.62-2.86l-.14-1.61a3.19,3.19,0,0,0-3.12-2.87h-46.6a2.58,2.58,0,0,0-2.61,2.87l.14,1.61A3.19,3.19,0,0,0,226.19,315Z" style="fill: rgb(255, 255, 255); transform-origin: 249.164px 311.33px;" id="elugld1qt8ds" class="animable"></path><path d="M230.07,330.16h44a2.59,2.59,0,0,0,2.62-2.86l-.15-1.61a3.19,3.19,0,0,0-3.11-2.87h-44a2.59,2.59,0,0,0-2.61,2.87l.14,1.61A3.18,3.18,0,0,0,230.07,330.16Z" style="fill: rgb(255, 255, 255); transform-origin: 251.754px 326.49px;" id="el64r0mfx5jse" class="animable"></path><path d="M227.61,345.32h47.83a2.59,2.59,0,0,0,2.61-2.87l-.14-1.61a3.19,3.19,0,0,0-3.12-2.86H227a2.59,2.59,0,0,0-2.62,2.86l.14,1.61A3.2,3.2,0,0,0,227.61,345.32Z" style="fill: rgb(255, 255, 255); transform-origin: 251.216px 341.65px;" id="el9o8xzkr8rb7" class="animable"></path></g></g><path d="M260.27,161.72l1.42-.3-7.11-24.3a7.15,7.15,0,0,1,.87-6.27,6.49,6.49,0,0,1,5.42-2.59,10.39,10.39,0,0,1,9.89,9l2.25,24.3h1.47l-2.25-24.3a12.09,12.09,0,0,0-11.49-10.47,7.89,7.89,0,0,0-6.51,3.13,8.53,8.53,0,0,0-1.07,7.49Z" id="elsnajecqnaa" class="animable" style="transform-origin: 263.607px 144.254px;"></path><path d="M249.81,165.7h40.64l-1.62-18.52a4.34,4.34,0,0,0-4.24-3.91H251.76a3.53,3.53,0,0,0-3.57,3.91Z" style="fill: #1456A4; transform-origin: 269.31px 154.485px;" id="elw5vse7jbqfi" class="animable"></path><g id="elf55hbgd7tz7"><path d="M249.81,165.7h40.64l-1.62-18.52a4.34,4.34,0,0,0-4.24-3.91H251.76a3.53,3.53,0,0,0-3.57,3.91Z" style="opacity: 0.2; transform-origin: 269.31px 154.485px;" class="animable" id="elwrk60mfibo"></path></g><path d="M264.39,161.64l1.44-.14-4.55-24.31a7.58,7.58,0,0,1,1.51-6.25,7.42,7.42,0,0,1,5.79-2.68,8.89,8.89,0,0,1,6.25,2.68,8.77,8.77,0,0,1,2.61,6.25l-.3,24.31,1.47.14.31-24.3a10.66,10.66,0,0,0-10.47-10.55,8.76,8.76,0,0,0-6.84,3.16,9,9,0,0,0-1.78,7.39Z" id="elrazawsoy21" class="animable" style="transform-origin: 269.286px 144.215px;"></path><g id="elcror4mijom"><g style="opacity: 0.2; transform-origin: 269.286px 144.215px;" class="animable" id="elvav0ucxngo"><path d="M264.39,161.64l1.44-.14-4.55-24.31a7.58,7.58,0,0,1,1.51-6.25,7.42,7.42,0,0,1,5.79-2.68,8.89,8.89,0,0,1,6.25,2.68,8.77,8.77,0,0,1,2.61,6.25l-.3,24.31,1.47.14.31-24.3a10.66,10.66,0,0,0-10.47-10.55,8.76,8.76,0,0,0-6.84,3.16,9,9,0,0,0-1.78,7.39Z" style="fill: rgb(255, 255, 255); transform-origin: 269.286px 144.215px;" id="elxhc8z10ip4g" class="animable"></path></g></g><path d="M248.52,168.5h43.72a1.25,1.25,0,0,0,1.26-1.38l-.21-2.38a1.54,1.54,0,0,0-1.5-1.38H248.07a1.25,1.25,0,0,0-1.26,1.38l.21,2.38A1.54,1.54,0,0,0,248.52,168.5Z" style="fill: #1456A4; transform-origin: 270.155px 165.93px;" id="elpypoi8t02p" class="animable"></path><g id="el300vjzntfz"><path d="M338.92,299.84H280.65l1,11.48.09,1,.91,10.48.09,1,.92,10.48.09,1,1,11.48h69.71l-1-11.48-.09-1-.91-10.48-.09-1-.92-10.48-.09-1-1-11.48Zm1,23H329.48l-.91-10.48H339Zm-11.45,0H318l-.92-10.48h10.41Zm-11.45,0H306.59l-.92-10.48h10.42Zm-11.44,0H295.14l-.91-10.48h10.41Zm-10.33,1h10.41l.92,10.48H296.15Zm11.45,0h10.41l.92,10.48H307.59Zm11.44,0h10.42l.91,10.48H319Zm11.45,0H340l.92,10.48H330.49Zm8.41-23,.91,10.48H328.48l-.92-10.48Zm-11.45,0,.92,10.48H317l-.91-10.48Zm-11.45,0,.92,10.48H305.59l-.92-10.48Zm-11.44,0,.91,10.48H294.14l-.92-10.48Zm-21.9,0h10.45l.92,10.48H282.66Zm1,11.48h10.44l.92,10.48H283.66Zm1,11.48H294.2l.91,10.48H284.67Zm1.92,22-.91-10.48H295.2l.92,10.48Zm11.48,0-.91-10.48h10.41l.92,10.48Zm11.45,0-.92-10.48H318.1l.91,10.48Zm11.45,0-.92-10.48h10.41l.92,10.48Zm11.44,0-.91-10.48H341l.92,10.48Zm21.9,0H342.94L342,335.28h10.45Zm-1-11.48H341.94L341,323.8h10.45Zm-1-11.48H340.93L340,312.32h10.45Zm-11.45-11.48L339,300.84h10.45l.91,10.48Z" style="fill: rgb(255, 255, 255); opacity: 0.8; transform-origin: 317.555px 323.3px;" class="animable" id="eluxo4valf11g"></path></g><polygon points="299.61 345.93 292.21 345.93 291.21 334.61 298.61 334.61 299.61 345.93" style="fill: #1456A4; transform-origin: 295.41px 340.27px;" id="elpant5vej8cm" class="animable"></polygon><polygon points="314.41 345.93 307.01 345.93 305 323.3 312.4 323.3 314.41 345.93" style="fill: rgb(38, 50, 56); transform-origin: 309.705px 334.615px;" id="elih2rshv103g" class="animable"></polygon><polygon points="329.21 345.93 321.81 345.93 320.49 331.12 327.89 331.12 329.21 345.93" style="fill: #1456A4; transform-origin: 324.85px 338.525px;" id="el4vgxpcq7q0a" class="animable"></polygon><polygon points="344.01 345.93 336.61 345.93 333.83 314.66 341.23 314.66 344.01 345.93" style="fill: rgb(38, 50, 56); transform-origin: 338.92px 330.295px;" id="elho6gw6qsyv" class="animable"></polygon><path d="M290,321.06h0a1.83,1.83,0,0,1,.56-2.6l16.7-9.41L322.42,314l15.2-10.12a2,2,0,0,1,2.71.61h0a1.85,1.85,0,0,1-.37,2.65L323.3,318.21l-15.32-5-15.31,8.63A2,2,0,0,1,290,321.06Z" style="fill: #1456A4; transform-origin: 315.204px 312.83px;" id="elsfqwcukokg8" class="animable"></path><path d="M332.35,307.67s8.57-8.07-1.87-11.48c0,0-4.73,9.15.48,11.48,0,0,2.51-4.18,1.06-8.56C332,299.11,334.87,302.38,332.35,307.67Z" style="fill: #1456A4; transform-origin: 332.087px 301.93px;" id="elu2rcdkyvzrs" class="animable"></path><path d="M338.79,307.87s7.25-9.28,11.56.86c0,0-8.65,5.54-11.43.53,0,0,3.92-2.88,8.39-1.81C347.31,307.45,343.82,304.88,338.79,307.87Z" style="fill: #1456A4; transform-origin: 344.57px 307.673px;" id="elp5vvhrujl7n" class="animable"></path><path d="M241.21,221.9a16.65,16.65,0,0,0,16.85-18.46A20.56,20.56,0,0,0,238,185a19.59,19.59,0,0,0-2.44.18,20.39,20.39,0,0,0-2.48-.18,16.65,16.65,0,0,0-16.84,18.46h11.42a10.75,10.75,0,0,1,8.47-11.7,13.37,13.37,0,0,1,10.53,11.7,10.79,10.79,0,0,1-10.92,12l.57,6.5Z" style="fill: #1456A4; transform-origin: 237.15px 203.479px;" id="els4wbbg25oy" class="animable"></path><path d="M239.27,224l-.57-6.51a13.31,13.31,0,0,1-13-12H214.28A20.55,20.55,0,0,0,234.35,224Z" style="fill: #1456A4; transform-origin: 226.775px 214.745px;" id="elx53fp0pip7n" class="animable"></path><path d="M241.21,221.9a16.65,16.65,0,0,0,16.85-18.46A20.56,20.56,0,0,0,238,185a19.59,19.59,0,0,0-2.44.18,20.39,20.39,0,0,0-2.48-.18,16.65,16.65,0,0,0-16.84,18.46h11.42a10.75,10.75,0,0,1,8.47-11.7,13.37,13.37,0,0,1,10.53,11.7,10.79,10.79,0,0,1-10.92,12l.57,6.5Z" style="fill: rgb(38, 50, 56); transform-origin: 237.15px 203.479px;" id="elgmz6t547dk8" class="animable"></path><path d="M239.27,224l-.57-6.51a13.31,13.31,0,0,1-13-12H214.28A20.55,20.55,0,0,0,234.35,224Z" style="fill: rgb(38, 50, 56); transform-origin: 226.775px 214.745px;" id="el9b2zz4fihxu" class="animable"></path><path d="M227.64,203.44a10.79,10.79,0,0,1,10.91-12,13.32,13.32,0,0,1,13,12,10.79,10.79,0,0,1-10.92,12l.57,6.5a16.65,16.65,0,0,0,16.85-18.46A20.56,20.56,0,0,0,238,185a16.65,16.65,0,0,0-16.84,18.46Z" style="fill: #1456A4; transform-origin: 239.605px 203.47px;" id="eljbz5vk8lr9" class="animable"></path><path d="M219.2,205.57A20.55,20.55,0,0,0,239.27,224l-.57-6.51a13.31,13.31,0,0,1-13-12Z" style="fill: #1456A4; transform-origin: 229.235px 214.745px;" id="el6ii2culqfju" class="animable"></path><g id="elm33cut4ucac"><path d="M219.2,205.57A20.55,20.55,0,0,0,239.27,224l-.57-6.51a13.31,13.31,0,0,1-13-12Z" style="fill: rgb(255, 255, 255); opacity: 0.5; transform-origin: 229.235px 214.745px;" class="animable" id="el6norzps6hfl"></path></g><path d="M238,239.26c-.19-2.24-.26-3-.46-5.29h-4.92a16.83,16.83,0,0,0-12.58,5.41l5,4.6H230a10.68,10.68,0,0,1,5.81-3.27c.13,1.46.22,2.43.43,4.89a13.3,13.3,0,0,1,13,12h11.43a20.56,20.56,0,0,0-20.08-18.46Z" style="fill: #1456A4; transform-origin: 240.355px 245.784px;" id="elihcr7dmnyzn" class="animable"></path><path d="M246.13,278.14A16.65,16.65,0,0,0,263,259.68H251.56a10.75,10.75,0,0,1-8.15,11.61l-.16-1.78a13.31,13.31,0,0,1-13-12A11,11,0,0,1,233,249.1l-5-4.6h-4.92a16.93,16.93,0,0,0-4.26,13.05A20.54,20.54,0,0,0,238.9,276l2.11-.23.2,2.36Z" style="fill: #1456A4; transform-origin: 240.916px 261.322px;" id="ellhbzb2rszw" class="animable"></path><path d="M238,239.26c-.19-2.24-.26-3-.46-5.29h-4.92a16.83,16.83,0,0,0-12.58,5.41l5,4.6H230a10.68,10.68,0,0,1,5.81-3.27c.13,1.46.22,2.43.43,4.89a13.3,13.3,0,0,1,13,12h11.43a20.56,20.56,0,0,0-20.08-18.46Z" style="fill: rgb(38, 50, 56); transform-origin: 240.355px 245.784px;" id="elsqoh6treyy" class="animable"></path><path d="M246.13,278.14A16.65,16.65,0,0,0,263,259.68H251.56a10.75,10.75,0,0,1-8.15,11.61l-.16-1.78a13.31,13.31,0,0,1-13-12A11,11,0,0,1,233,249.1l-5-4.6h-4.92a16.93,16.93,0,0,0-4.26,13.05A20.54,20.54,0,0,0,238.9,276l2.11-.23.2,2.36Z" style="fill: rgb(38, 50, 56); transform-origin: 240.916px 261.322px;" id="elxgipmiohfw" class="animable"></path><path d="M256.48,259.68a10.79,10.79,0,0,1-10.92,12l.57,6.5A16.65,16.65,0,0,0,263,259.68Z" style="fill: #1456A4; transform-origin: 254.332px 268.932px;" id="eltilstttqune" class="animable"></path><g id="ell3j45sh7g5"><path d="M256.48,259.68a10.79,10.79,0,0,1-10.92,12l.57,6.5A16.65,16.65,0,0,0,263,259.68Z" style="opacity: 0.3; transform-origin: 254.332px 268.932px;" class="animable" id="elsa8j8fd64yn"></path></g><path d="M240.59,239.09a20.56,20.56,0,0,1,20.08,18.46h-6.51a13.3,13.3,0,0,0-13-12C240.88,242.36,240.82,241.7,240.59,239.09Z" style="fill: #1456A4; transform-origin: 250.63px 248.32px;" id="elucbke0zz5o" class="animable"></path><path d="M233,249.1a11,11,0,0,0-2.76,8.45,13.31,13.31,0,0,0,13,12l.57,6.5a20.54,20.54,0,0,1-20.07-18.46A16.93,16.93,0,0,1,228,244.5Z" style="fill: #1456A4; transform-origin: 233.729px 260.275px;" id="ell76lj8wt35" class="animable"></path><path d="M230,244l-5-4.6A16.83,16.83,0,0,1,237.58,234c.23,2.61.29,3.27.57,6.5A10.9,10.9,0,0,0,230,244Z" style="fill: #1456A4; transform-origin: 231.575px 238.999px;" id="elz6e6vc85v5n" class="animable"></path><g id="elw6kwmxagxk7"><path d="M230,244l-5-4.6A16.83,16.83,0,0,1,237.58,234c.23,2.61.29,3.27.57,6.5A10.9,10.9,0,0,0,230,244Z" style="fill: rgb(255, 255, 255); opacity: 0.5; transform-origin: 231.575px 238.999px;" class="animable" id="elj52gx0y9ye"></path></g></g><g id="freepik--Character--inject-1" class="animable" style="transform-origin: 366.677px 290.077px;"><polygon points="372.28 397.3 367.89 408.25 361.55 406.65 364.72 394.45 372.28 397.3" style="fill: rgb(206, 122, 99); transform-origin: 366.915px 401.35px;" id="el73m8offt7au" class="animable"></polygon><polygon points="414.33 395.3 412.48 406.96 405.95 406.8 406.33 394.21 414.33 395.3" style="fill: rgb(206, 122, 99); transform-origin: 410.14px 400.585px;" id="elpabix4f8j1" class="animable"></polygon><path d="M354.09,412.85c5.81.08,6.58,0,9.84-.06,2.8-.06,3.46.3,5.71.29,1.87,0,1.83-1.81,1.28-3.89-.28-1-.69-3.24-1.06-4.92l-7.55-2.76c-1.23,2.27-4.93,7.51-8.21,7.9S351.78,412.82,354.09,412.85Z" style="fill: #1456A4; transform-origin: 361.617px 407.295px;" id="elrjm2ir1pov" class="animable"></path><path d="M380.91,250.56s-4.15,61-6.73,84.22a416,416,0,0,1-12.73,67.14c1.16,1.06,6.1,1.58,8.89,1.33,0,0,20.17-34.51,18.27-64.75,19.49-53.26,13.61-85.78,13.61-85.78Z" style="fill: rgb(38, 50, 56); transform-origin: 382.251px 326.936px;" id="eltp524caqqhk" class="animable"></path><g id="el3gsxu39p0ng"><path d="M392.61,320.69c2.42-17.25-.82-46.94-.82-46.94l1.63-9.7L397,267l6.18,6C402.35,284,399.64,299.74,392.61,320.69Z" style="opacity: 0.5; transform-origin: 397.485px 292.37px;" class="animable" id="el8pxv71d3x92"></path></g><path d="M398.19,412.33c5.81-.12,6.57-.23,9.83-.41,2.79-.16,3.47.18,5.71.08,1.88-.08,1.77-1.87,1.15-3.92-.31-1-.8-3.22-1.24-4.89l-8.52-.44c-1.15,2.31-3.78,5.63-7,6.14S395.88,412.38,398.19,412.33Z" style="fill: #1456A4; transform-origin: 405.674px 407.54px;" id="elm0om5mmb47e" class="animable"></path><path d="M388.7,253.51s9.08,56.8,13.12,79.84c4.24,24.2,3.67,54.26,3.07,70.16,1.38.76,6.29.11,8.95-.79,0,0,9.9-43.26,4.55-67.32,6.48-56.34-6.75-78.75-6.75-78.75Z" style="fill: rgb(38, 50, 56); transform-origin: 404.438px 328.677px;" id="elq5yi4w6k1c" class="animable"></path><path d="M385.62,211.22c-1.67,5.53-7.66,16.5-17.78,19,0,0,1.31,5.24-3.12,4.75,0,0,10.28,3.45,17.29-2.93,10.67-9.7,13-22.93,8.29-24.87C387.22,205.94,386.1,209.6,385.62,211.22Z" style="fill: #1456A4; transform-origin: 378.668px 221.412px;" id="el8hx0830dz4x" class="animable"></path><g id="elsi6z9g2eg9"><path d="M385.62,211.22c-1.67,5.53-7.78,16.5-17.78,19,0,0,1.31,5.24-3.12,4.75,0,0,10.28,3.45,17.29-2.93,10.67-9.7,13-22.93,8.29-24.87C387.22,205.94,386.1,209.6,385.62,211.22Z" style="opacity: 0.5; transform-origin: 378.668px 221.412px;" class="animable" id="elvc2cen34zx"></path></g><path d="M380.53,218c-.73,3,.29,8.53.36,16-.06,6.28.67,10.53-.87,22.16L413,257.38c-.2-8.95.62-18.9,7.35-38.06a8,8,0,0,0-5.89-10.4c-1.26-.3-2.6-.58-4-.83a105.38,105.38,0,0,0-14.51-2c-1.58-.07-3.23.06-4.8-.09C388.7,205.81,382,212.06,380.53,218Z" style="fill: rgb(38, 50, 56); transform-origin: 400.399px 231.688px;" id="els63is8n4yq8" class="animable"></path><path d="M396.84,174.67s-5.73.13-2.45,10l3.7-6.46Z" style="fill: rgb(38, 50, 56); transform-origin: 395.733px 179.67px;" id="elilc63g37nj" class="animable"></path><path d="M409.62,193.21c-1.47,4.36-3.41,12.45-.57,15.88,0,0-4.33-1.23-13.86,3.16-2.49-4.15-.44-5.09-.44-5.09,5.28-.5,5.62-4.23,5.17-7.83Z" style="fill: rgb(206, 122, 99); transform-origin: 401.788px 202.73px;" id="el555mxi3k1f7" class="animable"></path><g id="elrcilz1tinv"><path d="M405.67,195.71l-5.75,3.62a14.45,14.45,0,0,1,.13,2.53c2,0,4.95-1.75,5.41-3.72A6.81,6.81,0,0,0,405.67,195.71Z" style="opacity: 0.2; transform-origin: 402.81px 198.785px;" class="animable" id="elh03g1bfjonq"></path></g><path d="M414.39,182.66c-1,7.45-1.27,10.62-5.31,14.38-6.06,5.66-14.92,3.29-16.14-4.2-1.1-6.74.74-17.8,8.22-20.63A9.64,9.64,0,0,1,414.39,182.66Z" style="fill: rgb(206, 122, 99); transform-origin: 403.582px 185.819px;" id="el9n9jqfpzz9t" class="animable"></path><path d="M402.75,185.8c-.05.6-.4,1.07-.78,1.06s-.64-.49-.59-1.09.41-1.07.79-1.06S402.81,185.21,402.75,185.8Z" style="fill: rgb(38, 50, 56); transform-origin: 402.066px 185.785px;" id="elsistk9sgtpr" class="animable"></path><path d="M395.37,185.41c-.05.6-.4,1.07-.78,1.06s-.64-.5-.59-1.09.41-1.07.78-1.06S395.43,184.82,395.37,185.41Z" style="fill: rgb(38, 50, 56); transform-origin: 394.686px 185.395px;" id="elrj5eni7n24" class="animable"></path><path d="M395,184.36l-1.36-.45S394.21,185,395,184.36Z" style="fill: rgb(38, 50, 56); transform-origin: 394.32px 184.236px;" id="elofj862h38k" class="animable"></path><path d="M397.51,186.77a17.71,17.71,0,0,1-2.42,3.75,2.38,2.38,0,0,0,2,.44Z" style="fill: rgb(186, 77, 60); transform-origin: 396.3px 188.896px;" id="elnxd38dzhu4e" class="animable"></path><path d="M404.18,182.1a.3.3,0,0,1-.24-.09,2.53,2.53,0,0,0-2.31-.75.32.32,0,0,1-.39-.26.37.37,0,0,1,.27-.42,3.18,3.18,0,0,1,2.93.91.36.36,0,0,1,0,.5A.38.38,0,0,1,404.18,182.1Z" style="fill: rgb(38, 50, 56); transform-origin: 402.888px 181.308px;" id="elnpgg249n60l" class="animable"></path><path d="M392.7,181.43a.3.3,0,0,1-.24-.05.33.33,0,0,1-.07-.48,3.62,3.62,0,0,1,2.77-1.66.32.32,0,0,1,.32.34.38.38,0,0,1-.36.36,2.91,2.91,0,0,0-2.19,1.34A.36.36,0,0,1,392.7,181.43Z" style="fill: rgb(38, 50, 56); transform-origin: 393.899px 180.338px;" id="eliaj5p1lievb" class="animable"></path><path d="M402.33,184.75,401,184.3S401.59,185.43,402.33,184.75Z" style="fill: rgb(38, 50, 56); transform-origin: 401.665px 184.634px;" id="el99zc2o8uts7" class="animable"></path><path d="M396.24,193.11a33.87,33.87,0,0,1,6.52-.36,4.09,4.09,0,0,1-4.23,2.63A2.12,2.12,0,0,1,396.24,193.11Z" style="fill: rgb(38, 50, 56); transform-origin: 399.497px 194.06px;" id="elo85zra1oggs" class="animable"></path><path d="M399.74,194.23a4.63,4.63,0,0,0-2.72.69,2.46,2.46,0,0,0,1.51.46,4.53,4.53,0,0,0,2.71-.7A2.41,2.41,0,0,0,399.74,194.23Z" style="fill: rgb(255, 86, 82); transform-origin: 399.13px 194.805px;" id="elqmtgzuclot" class="animable"></path><path d="M396.46,193.07a.94.94,0,0,0,.7.74,26.21,26.21,0,0,0,4.27-.34,1.43,1.43,0,0,0,1.12-.72A38.87,38.87,0,0,0,396.46,193.07Z" style="fill: rgb(255, 255, 255); transform-origin: 399.505px 193.273px;" id="el3guaahronff" class="animable"></path><path d="M412.53,188s-5-1.7-7.23-11.4c0,0-1.33,2.92,1.29,8.29,0,0-6.07-2.07-5.64-8.2,0,0-4.78,3-1.35,7.41,0,0-7.82-4.47-2.78-10.33,0,0-.24-11.37,10.82-4.48,0,0,27.06,8.56,4.12,24.53Z" style="fill: rgb(38, 50, 56); transform-origin: 408.057px 180.447px;" id="elwe4g0b49z3" class="animable"></path><path d="M416.39,188.86a6,6,0,0,1-3.76,2.67c-2,.41-2.76-1.58-2-3.54.68-1.76,2.55-4.09,4.46-3.62S417.48,187.14,416.39,188.86Z" style="fill: rgb(206, 122, 99); transform-origin: 413.652px 187.946px;" id="el0l7qltxjrt2" class="animable"></path><path d="M400.82,170.65s-10,.95-8,8c0,0,1.12-4,7.15-3.65Z" style="fill: rgb(38, 50, 56); transform-origin: 396.688px 174.65px;" id="elzogzknrt3gg" class="animable"></path><path d="M400.82,170.65a4.12,4.12,0,0,1-4.93-3.5s-3.53,6.93,3.13,5.41Z" style="fill: rgb(38, 50, 56); transform-origin: 397.888px 169.964px;" id="elqj2ipg8g9od" class="animable"></path><path d="M410,209.28s-2.08-1.4-2.12-5.35a1,1,0,0,0-1.2-1,13.91,13.91,0,0,1-6.46-.33,1,1,0,0,0-1.28.77c-.26,1.33-1.08,3.33-3.61,3.34l-4,1.27,1.84,5.46,5.1.58,10.1-1.21,2.41-2.86Z" style="fill: rgb(38, 50, 56); transform-origin: 401.055px 208.287px;" id="el7e1cd6jemr5" class="animable"></path><path d="M409.21,206.85a2.17,2.17,0,0,0-1.9.44c-2.33,1.89-8.44,8.24-10.57,24-2.65,19.64,6.42,41.73,6.42,41.73L420,268.89s-7-10.21-6.06-20.62,9.52-30.79,7.41-35.08C419.61,209.68,412,207.53,409.21,206.85Z" style="fill: #1456A4; transform-origin: 408.969px 239.904px;" id="el0z7cdbw9cue" class="animable"></path><g id="elvt305w6yp4"><path d="M409.21,206.85a2.17,2.17,0,0,0-1.9.44c-2.33,1.89-8.44,8.24-10.57,24-2.65,19.64,6.42,41.73,6.42,41.73L420,268.89s-7-10.21-6.06-20.62,9.52-30.79,7.41-35.08C419.61,209.68,412,207.53,409.21,206.85Z" style="opacity: 0.3; transform-origin: 408.969px 239.904px;" class="animable" id="ellqbg6md25jp"></path></g><g id="el47brzs06a5z"><path d="M409.45,208.29s-.8,7.26-2.18,9.17c-.53.73-3.25,1-3.06,1.89.23,1.05,3.87-.47,4.29.52,1.73,4-11.31,14.06-11.31,14.06s10.55-9.43,9-12.88c-.59-1.3-5.33.45-5.61-1-.31-1.6,4.5-2.19,5.54-3.43C407.56,214.94,409.45,208.29,409.45,208.29Z" style="opacity: 0.2; transform-origin: 403.32px 221.11px;" class="animable" id="el748yj295nws"></path></g><path d="M396.46,205.79c.34.07.36.13.07.32-2.24,1.44-7.32,7.34-9.2,31.22-2.44,31-6.74,34-6.74,34l-4.29-1.41s1.69-5.59,2.65-18.51c.37-5-.17-14.1-.13-22.63C378.89,215.74,385.53,203.58,396.46,205.79Z" style="fill: #1456A4; transform-origin: 386.516px 238.429px;" id="elbe8gdzkyobf" class="animable"></path><g id="el4con3e8pyh6"><path d="M396.46,205.79c.34.07.36.13.07.32-2.24,1.44-7.32,7.34-9.2,31.22-2.44,31-6.74,34-6.74,34l-4.29-1.41s1.69-5.59,2.65-18.51c.37-5-.17-14.1-.13-22.63C378.89,215.74,385.4,203.58,396.46,205.79Z" style="opacity: 0.3; transform-origin: 386.516px 238.429px;" class="animable" id="elbaiymiv450s"></path></g><g id="el8jjeff7x5i5"><path d="M393,207.49s-6.79,5.6-6.74,8.27c0,.9,2.7,1.88,2.39,2.74-.42,1.14-4.13-.24-4.82.77-1.71,2.5,2.6,12.84,2.6,12.84s-6.29-11-4.5-13.93c.52-.85,3.62.4,3.95-.54.21-.63-1.86-1.26-1.83-1.92C384.1,212.68,393,207.49,393,207.49Z" style="opacity: 0.2; transform-origin: 387.305px 219.8px;" class="animable" id="elj04fky340ap"></path></g><path d="M399.69,250l-36.82-29a30.06,30.06,0,1,0-2.42,2.88l34.92,31.3a3.37,3.37,0,0,0,4.82-.34h0A3.35,3.35,0,0,0,399.69,250Zm-78.26-26.39a26.82,26.82,0,1,1,37.79-3.26A26.81,26.81,0,0,1,321.43,223.63Z" style="fill: rgb(38, 50, 56); transform-origin: 354.815px 214.558px;" id="el5j9z3cffxa2" class="animable"></path><g id="elpjhgz2889n"><path d="M399.69,250l-36.82-29a30.06,30.06,0,1,0-2.42,2.88l34.92,31.3a3.37,3.37,0,0,0,4.82-.34h0A3.35,3.35,0,0,0,399.69,250Zm-78.26-26.39a26.82,26.82,0,1,1,37.79-3.26A26.81,26.81,0,0,1,321.43,223.63Z" style="fill: rgb(255, 255, 255); opacity: 0.5; transform-origin: 354.815px 214.558px;" class="animable" id="elgjtx2jad6hs"></path></g><path d="M395.62,244.66a46.09,46.09,0,0,0,4.66,2.55,40.49,40.49,0,0,0,5,2,23.26,23.26,0,0,0,5.77,1.11,12.24,12.24,0,0,0,3.59-.33,8.05,8.05,0,0,0,4.12-2.5,3.37,3.37,0,0,0,.38-.55l.12-.24a30.32,30.32,0,0,0,2.38-5.72,33.61,33.61,0,0,0,1.22-6,36.85,36.85,0,0,0,.2-6c0-1-.14-2-.27-3-.06-.5-.13-1-.22-1.51l-.15-.77-.2-.88a4.49,4.49,0,0,0-8.81,1.75l.07.38.07.44.09.56.16,1.15c.09.78.16,1.57.2,2.36a41.46,41.46,0,0,1,0,4.73,28.76,28.76,0,0,1-1.81,8.4,5.65,5.65,0,0,1-1.18.24,19.26,19.26,0,0,1-4.21-.18c-1.51-.19-3.07-.5-4.64-.84s-3.18-.76-4.7-1.15l-.1,0a2.24,2.24,0,0,0-1.76,4.07Z" style="fill: rgb(206, 122, 99); transform-origin: 408.818px 234.772px;" id="elqaqtiluip8" class="animable"></path><path d="M389.82,237.68l2-.5a2.66,2.66,0,0,1,2.27.53l3.06,2.45c1.23,1,2.6,3.73,1.93,4.86-1.78,3-7.87-.26-7.87-.26l-1.34-.23a2.31,2.31,0,0,1-1.94-2.38l.22-2.6A2.12,2.12,0,0,1,389.82,237.68Z" style="fill: rgb(206, 122, 99); transform-origin: 393.592px 241.701px;" id="elmtto0oa5i9l" class="animable"></path><path d="M416.15,210.65a3.31,3.31,0,0,1,3.57.42c2.47,2,6.37,7.5,4.52,22.68-2.63,21.56-13.49,18.54-25.78,12.71l.75-5.66s8.41,2.38,12.8,1.47a29.12,29.12,0,0,0,1.84-11.34C413.53,225.4,410.56,213.65,416.15,210.65Z" style="fill: #1456A4; transform-origin: 411.591px 230.513px;" id="elyv4z22naogn" class="animable"></path><g id="elb5g9muj60rb"><path d="M416.15,210.65a3.31,3.31,0,0,1,3.57.42c2.47,2,6.37,7.5,4.52,22.68-2.63,21.56-13.49,18.54-25.78,12.71l.75-5.66s8.41,2.38,12.8,1.47a29.12,29.12,0,0,0,1.84-11.34C413.53,225.4,410.56,213.65,416.15,210.65Z" style="opacity: 0.5; transform-origin: 411.591px 230.513px;" class="animable" id="ellnb986ntdza"></path></g><path d="M358.67,229.36l.58,2.14a2.85,2.85,0,0,0,1.57,1.84l3.61,1.62a1.94,1.94,0,0,0,.63.16,3,3,0,0,0,2.86-4.61,21.73,21.73,0,0,0-2.5-3.33l-.86-1.12a2.21,2.21,0,0,0-3-.63l-2.11,1.49A2.25,2.25,0,0,0,358.67,229.36Z" style="fill: rgb(206, 122, 99); transform-origin: 363.487px 230.116px;" id="elbk0lvxh0zxv" class="animable"></path><polygon points="338.85 190 334.03 198.28 326.62 193.83 332.8 183.08 345.15 183.08 338.85 190" style="fill: #1456A4; transform-origin: 335.885px 190.68px;" id="elmtc2pvlf5qi" class="animable"></polygon><path d="M349.59,207.91l-4.81-8.4,7.53-4.2,6.3,10.75c-2,3.45-4.33,7.41-6.18,10.74Z" style="fill: #1456A4; transform-origin: 351.695px 206.055px;" id="elml1ai0ps8vs" class="animable"></path><path d="M328.72,208.28h9.51v8.64H325.76c-2-3.33-4.33-7.41-6.18-10.74Z" style="fill: #1456A4; transform-origin: 328.905px 211.55px;" id="elnqidsn4l85" class="animable"></path><path d="M345.15,183.08l3.7,6.3,1.86-1a.58.58,0,0,1,.79.79l-3.88,6.75a.82.82,0,0,1-.75.4l-7.13-.36a.58.58,0,0,1-.25-1.09l1.58-.87c-.49-1-1.36-2.47-2.22-3.95Z" style="fill: #1456A4; transform-origin: 345.212px 189.701px;" id="el4n1de9e1lc6" class="animable"></path><path d="M352.43,216.8h-7.28l-.07,2.27a.58.58,0,0,1-1.08.27l-3.92-6.8a.81.81,0,0,1,0-.85l3.86-5.92a.57.57,0,0,1,1.06.32c0,.58,0,1.15,0,1.69,1.11.13,2.84.13,4.57.13Z" style="fill: #1456A4; transform-origin: 346.195px 212.558px;" id="elm87j3t3piv" class="animable"></path><path d="M319.58,206.18l3.58-6.3-1.85-1.15a.58.58,0,0,1,.31-1.07h7.84a.82.82,0,0,1,.72.44l3.29,6.38a.59.59,0,0,1-.84.76l-1.56-1c-.62,1-1.49,2.47-2.35,4.08Z" style="fill: #1456A4; transform-origin: 326.555px 202.99px;" id="eloyr3ce2x0x" class="animable"></path><g id="el297ir6jbu1v"><path d="M345.15,183.08l3.7,6.3,1.86-1a.58.58,0,0,1,.79.79l-3.88,6.75a.82.82,0,0,1-.75.4l-7.13-.36a.58.58,0,0,1-.25-1.09l1.58-.87c-.49-1-1.36-2.47-2.22-3.95Z" style="opacity: 0.3; transform-origin: 345.212px 189.701px;" class="animable" id="el50ebusj28ww"></path></g><g id="el5z8fblpt3xe"><path d="M352.43,216.8h-7.28l-.07,2.27a.58.58,0,0,1-1.08.27l-3.92-6.8a.81.81,0,0,1,0-.85l3.86-5.92a.57.57,0,0,1,1.06.32c0,.58,0,1.15,0,1.69,1.11.13,2.84.13,4.57.13Z" style="opacity: 0.3; transform-origin: 346.195px 212.558px;" class="animable" id="eljiffzxwbgcj"></path></g><g id="el6w6es088hs6"><path d="M319.58,206.18l3.58-6.3-1.85-1.15a.58.58,0,0,1,.31-1.07h7.84a.82.82,0,0,1,.72.44l3.29,6.38a.59.59,0,0,1-.84.76l-1.56-1c-.62,1-1.49,2.47-2.35,4.08Z" style="opacity: 0.3; transform-origin: 326.555px 202.99px;" class="animable" id="elgsb3pi2we4"></path></g></g><defs>     <filter id="active" height="200%">         <feMorphology in="SourceAlpha" result="DILATED" operator="dilate" radius="2"></feMorphology>                <feFlood flood-color="#32DFEC" flood-opacity="1" result="PINK"></feFlood>        <feComposite in="PINK" in2="DILATED" operator="in" result="OUTLINE"></feComposite>        <feMerge>            <feMergeNode in="OUTLINE"></feMergeNode>            <feMergeNode in="SourceGraphic"></feMergeNode>        </feMerge>    </filter>    <filter id="hover" height="200%">        <feMorphology in="SourceAlpha" result="DILATED" operator="dilate" radius="2"></feMorphology>                <feFlood flood-color="#ff0000" flood-opacity="0.5" result="PINK"></feFlood>        <feComposite in="PINK" in2="DILATED" operator="in" result="OUTLINE"></feComposite>        <feMerge>            <feMergeNode in="OUTLINE"></feMergeNode>            <feMergeNode in="SourceGraphic"></feMergeNode>        </feMerge>            <feColorMatrix type="matrix" values="0   0   0   0   0                0   1   0   0   0                0   0   0   0   0                0   0   0   1   0 "></feColorMatrix>    </filter></defs></svg>