<svg width="139" height="119" viewBox="0 0 139 119" fill="none" xmlns="http://www.w3.org/2000/svg">
<path d="M121.059 70.6545H108.111C106.993 70.6545 106.088 71.5603 106.088 72.6777C106.088 73.795 106.993 74.7008 108.111 74.7008H121.059C122.177 74.7008 123.082 73.795 123.082 72.6777C123.082 71.5603 122.177 70.6545 121.059 70.6545Z" fill="#EA792D"/>
<path d="M121.059 78.9708H108.111C106.993 78.9708 106.088 79.8766 106.088 80.9939C106.088 82.1113 106.993 83.0171 108.111 83.0171H121.059C122.177 83.0171 123.082 82.1113 123.082 80.9939C123.082 79.8766 122.177 78.9708 121.059 78.9708Z" fill="#EA792D"/>
<path d="M121.059 62.3382H108.111C106.993 62.3382 106.088 63.244 106.088 64.3614C106.088 65.4787 106.993 66.3845 108.111 66.3845H121.059C122.177 66.3845 123.082 65.4787 123.082 64.3614C123.082 63.244 122.177 62.3382 121.059 62.3382Z" fill="#EA792D"/>
<path d="M91.4624 59.707C89.658 59.707 88.19 61.175 88.19 62.9794V64.8966H83.4428C81.6387 64.8966 80.1707 66.3646 80.1707 68.1687V69.8989H75.4106C73.6064 69.8989 72.1384 71.3669 72.1384 73.1711V82.646C72.1384 84.3017 73.4853 85.6486 75.1408 85.6486H97.2665C98.922 85.6486 100.269 84.3017 100.269 82.646V62.9794C100.269 61.175 98.8011 59.707 96.9967 59.707H91.4624ZM80.1707 81.6023H76.1848V73.9453H80.1707V81.6023ZM88.19 81.6023H84.217C84.217 79.1402 84.217 71.453 84.217 68.9429H88.19V81.6023ZM96.2222 81.6023H92.2493C92.2493 68.5167 92.2361 64.3565 92.2361 63.7533H96.222V81.6023H96.2222Z" fill="#EA792D"/>
<path d="M4.97563 118.999H39.1595C40.2771 118.999 41.1827 118.094 41.1827 116.976C41.1827 115.859 40.2771 114.953 39.1595 114.953H18.3709V87.7734C18.3709 86.6561 17.4653 85.7503 16.3477 85.7503C15.2301 85.7503 14.3245 86.6561 14.3245 87.7734V114.953H4.97563C4.46337 114.953 4.04633 114.536 4.04633 114.024V85.3874C4.04633 78.9851 8.58037 74.7882 11.638 73.5223L24.7935 68.3845L32.6231 76.2139C35.4938 79.0854 39.4967 80.879 43.8802 80.8788C48.106 80.8785 52.1477 79.2028 55.1377 76.2142L62.857 68.4946V95.2707C62.857 98.1336 65.186 100.463 68.0487 100.463H69.3896V114.954H48.601C47.4834 114.954 46.5778 115.86 46.5778 116.977C46.5778 118.094 47.4834 119 48.601 119H82.7848C85.5285 119 87.7605 116.768 87.7605 114.024V100.463H96.1579V106.667C93.6554 107.513 91.8478 109.882 91.8478 112.667C91.8478 116.159 94.6889 119 98.1811 119C101.673 119 104.514 116.159 104.514 112.667C104.514 109.882 102.707 107.513 100.204 106.667V100.463H128.313C131.176 100.463 133.505 98.1336 133.505 95.2707V77.3989C133.505 76.2816 132.599 75.3758 131.482 75.3758C130.364 75.3758 129.459 76.2816 129.459 77.3989V95.2707C129.459 95.9025 128.945 96.4164 128.313 96.4164H85.7373H68.0489C67.4174 96.4164 66.9036 95.9025 66.9036 95.2707C66.9036 93.9961 66.9036 49.2443 66.9036 47.9697H129.459V67.9575C129.459 69.0748 130.364 69.9807 131.482 69.9807C132.599 69.9807 133.505 69.0748 133.505 67.9575V47.9697H133.506C136.048 47.9697 138.115 45.9021 138.115 43.3607V39.4611C138.115 36.9198 136.048 34.8523 133.506 34.8523H69.7306C69.3162 32.6463 68.0681 30.6795 66.295 29.3922C66.4884 28.8538 66.5993 28.2763 66.5993 27.672V14.6037C66.5993 10.3238 62.891 7.18196 59.0653 7.47572C58.5892 7.51268 58.0537 7.26882 57.9488 6.73309C57.0626 2.20255 54.2162 0 49.247 0H32.0771C24.6699 0 18.6438 6.02606 18.6438 13.4333V25.9556C18.6438 27.71 19.3096 29.3119 20.401 30.5225C18.8281 32.1168 17.875 34.2624 17.875 36.4717C17.875 40.5965 21.0946 44.2671 25.6394 44.7793C26.2895 49.4261 28.7815 53.9173 32.7885 56.9064V60.9177C30.5125 61.8068 12.5574 68.8191 10.1468 69.7605C10.1355 69.7651 10.1242 69.7697 10.1128 69.7743C5.24242 71.7788 0 77.5198 0 85.3874V114.024C0 116.768 2.23195 118.999 4.97563 118.999ZM98.1811 110.379C99.4422 110.379 100.468 111.405 100.468 112.666C100.468 113.928 99.4422 114.953 98.1811 114.953C96.92 114.953 95.8941 113.928 95.8941 112.666C95.8941 111.405 96.92 110.379 98.1811 110.379ZM73.4359 100.462H83.7142V114.024C83.7142 114.536 83.2971 114.953 82.7848 114.953H73.4362V100.462H73.4359ZM38.5987 75.5918C41.0125 73.1616 40.1358 74.0443 42.5571 71.6067C42.5598 71.604 42.5619 71.6011 42.5644 71.5984C42.7427 71.4176 42.9115 71.1908 43.0149 71.0235H44.7111C44.8195 71.2008 44.9935 71.4298 45.1694 71.6067L49.1388 75.6029C45.823 77.2462 41.911 77.2419 38.5987 75.5918ZM36.8321 61.4008C36.834 61.3496 36.835 61.2981 36.835 61.246V59.1686C41.0087 60.8341 46.212 61.1044 50.9138 59.2004L50.9157 61.2614C50.9157 61.2999 50.9165 61.3385 50.9179 61.3771C48.571 63.7072 47.5554 64.7156 45.2776 66.9772H42.4492C41.0252 65.564 37.9772 62.5378 36.8321 61.4008ZM52.4423 73.187C52.0538 72.7961 49.0784 69.8005 48.6312 69.35L53.3225 64.6921C56.1746 65.7968 56.0187 65.7363 58.8112 66.8178L52.4423 73.187ZM62.8572 64.0455L54.962 60.9881L54.9585 56.9275C58.0022 54.658 60.3145 51.4601 61.4715 47.7564C61.9088 47.8945 62.3736 47.9697 62.8559 47.9697H62.8572V64.0455ZM133.506 38.8981C133.816 38.8981 134.069 39.1506 134.069 39.4606V43.3602C134.069 43.6704 133.816 43.9229 133.506 43.9229C130.107 43.9229 66.322 43.9229 62.8559 43.9229C62.5459 43.9229 62.2934 43.6704 62.2934 43.3602C62.2934 41.1366 62.2934 41.6175 62.2934 39.4606C62.2934 39.1504 62.5459 38.8979 62.8559 38.8979C67.0263 38.8981 129.39 38.8981 133.506 38.8981ZM63.4728 32.3814C64.4213 32.908 65.1661 33.8052 65.551 34.8515H62.8559C62.6725 34.8515 62.417 34.8704 62.2934 34.8855V32.7189C62.6943 32.6555 63.1502 32.5182 63.4728 32.3814ZM25.4673 40.6521C23.452 40.1719 21.9214 38.4981 21.9214 36.4714C21.9214 34.9913 22.8148 33.5014 24.1566 32.6547C24.4754 32.717 24.8018 32.7582 25.1344 32.7744C25.2453 32.7801 25.3562 32.7828 25.467 32.7831V40.6521H25.4673ZM25.4713 28.7365C23.972 28.7365 22.6902 27.5139 22.6902 25.9553V13.4333C22.6902 8.2572 26.901 4.04633 32.0771 4.04633H49.247C52.9953 4.04633 53.6071 5.61495 53.9777 7.50971C54.4627 9.98984 56.7867 11.709 59.3755 11.5102C60.8743 11.3958 62.5527 12.7076 62.5527 14.6037V27.6712C62.5527 28.2533 62.0501 28.7365 61.4874 28.7365C59.3329 28.7365 57.6186 26.9569 57.6186 24.8676C57.6186 22.4471 54.3705 21.6503 53.2397 23.7676C51.6012 26.8323 48.4278 28.7362 44.9587 28.7362C42.132 28.7365 28.3027 28.7365 25.4713 28.7365ZM29.5136 42.3461V32.7828H44.9587C48.5867 32.7828 52.0576 31.3167 54.5782 28.7262C55.4061 30.2029 56.6952 31.3857 58.2471 32.0852V42.3459C58.2471 50.23 51.804 56.4786 44.1141 56.4786C35.3012 56.4789 29.5136 49.6303 29.5136 42.3461ZM34.3598 64.6481C37.4347 67.7012 36.2645 66.5394 39.0956 69.3502C37.0417 71.4179 37.7854 70.6693 35.3015 73.17L28.9088 66.7773L34.3598 64.6481Z" fill="#EA792D"/>
</svg>
