<svg width="121" height="119" viewBox="0 0 121 119" fill="none" xmlns="http://www.w3.org/2000/svg">
<path d="M68.1399 69.7874H96.4801C97.5702 69.7874 98.4542 68.9035 98.4542 67.8133C98.4542 66.7231 97.5702 65.8392 96.4801 65.8392H68.1399C67.0497 65.8392 66.1658 66.7231 66.1658 67.8133C66.1658 68.9035 67.0495 69.7874 68.1399 69.7874Z" fill="#EA792D"/>
<path d="M94.2427 74.6414H70.3772C68.3918 74.6414 66.7766 76.2566 66.7766 78.242V96.1409C66.7766 98.1262 68.3918 99.7414 70.3772 99.7414H94.2425C96.2278 99.7414 97.8431 98.1262 97.8431 96.1409V78.242C97.8431 76.2564 96.2281 74.6414 94.2427 74.6414ZM94.3271 96.1409C94.3271 96.1875 94.2891 96.2255 94.2425 96.2255H70.3772C70.3306 96.2255 70.2926 96.1875 70.2926 96.1409V78.242C70.2926 78.1953 70.3306 78.1573 70.3772 78.1573H94.2425C94.2891 78.1573 94.3271 78.1953 94.3271 78.242V96.1409Z" fill="#EA792D"/>
<path d="M92.2918 8.77471C93.2627 8.77471 94.0498 7.9876 94.0498 7.01672V1.75799C94.0498 0.78711 93.2627 0 92.2918 0C91.3209 0 90.5338 0.78711 90.5338 1.75799V7.01695C90.5338 7.9876 91.3209 8.77471 92.2918 8.77471Z" fill="#EA792D"/>
<path d="M78.7077 11.7609C79.3943 12.4475 80.5074 12.4475 81.1937 11.7609C81.8803 11.0744 81.8803 9.96123 81.1937 9.27492L77.4752 5.55642C76.7887 4.86987 75.6755 4.86987 74.9892 5.55642C74.3027 6.24297 74.3027 7.35613 74.9892 8.04245L78.7077 11.7609Z" fill="#EA792D"/>
<path d="M105.876 11.7609L109.595 8.04245C110.281 7.3559 110.281 6.24297 109.595 5.55642C108.909 4.86987 107.795 4.86987 107.109 5.55642L103.39 9.27492C102.704 9.96147 102.704 11.0744 103.39 11.7609C104.076 12.4475 105.19 12.4475 105.876 11.7609Z" fill="#EA792D"/>
<path d="M118.254 19.1567H112.995C112.024 19.1567 111.237 19.9438 111.237 20.9147C111.237 21.8855 112.024 22.6727 112.995 22.6727H118.254C119.225 22.6727 120.012 21.8855 120.012 20.9147C120.012 19.9438 119.225 19.1567 118.254 19.1567Z" fill="#EA792D"/>
<path d="M66.3298 22.6727H71.5888C72.5597 22.6727 73.3468 21.8855 73.3468 20.9147C73.3468 19.9438 72.5597 19.1567 71.5888 19.1567H66.3298C65.359 19.1567 64.5718 19.9438 64.5718 20.9147C64.5718 21.8855 65.359 22.6727 66.3298 22.6727Z" fill="#EA792D"/>
<path d="M19.4129 42.9263H47.753C48.8432 42.9263 49.7271 42.0424 49.7271 40.9522C49.7271 39.862 48.8432 38.9781 47.753 38.9781H19.4129C18.3227 38.9781 17.4388 39.862 17.4388 40.9522C17.4388 42.0424 18.3227 42.9263 19.4129 42.9263Z" fill="#EA792D"/>
<path d="M19.4129 51.8801H47.753C48.8432 51.8801 49.7271 50.9962 49.7271 49.906C49.7271 48.8158 48.8432 47.9319 47.753 47.9319H19.4129C18.3227 47.9319 17.4388 48.8158 17.4388 49.906C17.4388 50.9962 18.3227 51.8801 19.4129 51.8801Z" fill="#EA792D"/>
<path d="M49.7274 58.8596C49.7274 57.7692 48.8435 56.8855 47.7533 56.8855H19.4129C18.3227 56.8855 17.4388 57.7694 17.4388 58.8596C17.4388 59.9498 18.3227 60.8337 19.4129 60.8337H47.753C48.8435 60.8337 49.7274 59.9498 49.7274 58.8596Z" fill="#EA792D"/>
<path d="M19.4129 94.4098H47.753C48.8432 94.4098 49.7271 93.5259 49.7271 92.4357C49.7271 91.3456 48.8432 90.4616 47.753 90.4616H19.4129C18.3227 90.4616 17.4388 91.3456 17.4388 92.4357C17.4388 93.5262 18.3227 94.4098 19.4129 94.4098Z" fill="#EA792D"/>
<path d="M111.286 32.9513H109.062C109.411 29.3366 108.589 25.8042 106.821 22.806C106.328 21.9695 105.25 21.6915 104.414 22.1844C103.578 22.6776 103.299 23.7554 103.793 24.5917C106.486 29.161 106.229 35.0107 102.89 39.3921C102.872 39.4157 102.854 39.4397 102.836 39.4633C101.751 40.8671 99.4499 42.6711 97.7024 46.9299H86.8807C85.9405 44.6391 84.521 42.4381 82.7344 40.6018C74.372 32.0083 80.8297 17.5267 92.8171 17.988C94.8711 18.0667 96.8309 18.6094 98.6419 19.6009C99.4939 20.0671 100.562 19.7544 101.028 18.9031C101.494 18.0515 101.182 16.9831 100.33 16.5169C90.2246 10.9846 77.6257 17.1275 75.688 28.4647H61.3379C60.0395 28.4647 58.853 28.9484 57.9461 29.7442C57.0395 28.9487 55.8527 28.4647 54.5546 28.4647H10.8025C8.96035 28.4647 7.46161 29.9634 7.46161 31.8053V32.951H4.60663C2.06646 32.9513 0 35.018 0 37.5581V71.0912V80.0407V84.1713C0 85.1422 0.78711 85.9293 1.75799 85.9293C2.72887 85.9293 3.51598 85.1422 3.51598 84.1713V83.8889C3.75506 83.9104 3.55817 83.9043 7.46161 83.9043V103.462C7.46161 105.304 8.96035 106.802 10.8025 106.802H54.5548C55.5768 106.802 55.8768 107.57 56.1884 107.865V113.323C54.9782 112.549 53.5551 112.116 52.0798 112.116H4.60663C4.00517 112.116 3.51598 111.626 3.51598 111.025V92.3753C3.51598 91.4044 2.72887 90.6173 1.75799 90.6173C0.78711 90.6173 0 91.4044 0 92.3753V111.025C0 113.565 2.06646 115.632 4.60663 115.632H52.0798C53.5307 115.632 54.8895 116.411 55.6256 117.665C56.6925 119.484 59.2451 119.406 60.2669 117.665C61.0031 116.411 62.3619 115.632 63.8129 115.632H111.286C113.826 115.632 115.893 113.565 115.893 111.025V37.5581C115.893 35.018 113.826 32.9513 111.286 32.9513ZM87.4191 54.1184V50.4458H97.1642V54.1184C97.1642 56.8051 94.9785 58.9911 92.2916 58.9911C89.6047 58.9911 87.4191 56.8053 87.4191 54.1184ZM61.3381 31.9809H75.4564C75.5529 34.4573 76.221 36.9004 77.2868 38.9781H68.1396C67.0494 38.9781 66.1655 39.862 66.1655 40.9522C66.1655 42.0427 67.0494 42.9263 68.1396 42.9263H80.0958C81.5587 44.46 82.6133 45.9477 83.4801 47.9317H68.1394C67.0492 47.9317 66.1653 48.8156 66.1653 49.906C66.1653 50.9962 67.0492 51.8801 68.1394 51.8801H83.9029V54.1186C83.9029 55.0879 84.07 56.0187 84.3741 56.8855H68.1396C67.0494 56.8855 66.1655 57.7694 66.1655 58.8596C66.1655 59.9498 67.0494 60.8337 68.1396 60.8337L87.185 60.7669C88.6005 61.8566 90.3711 62.507 92.2916 62.507C96.917 62.507 100.68 58.744 100.68 54.1184V48.9989C101.989 45.3074 104.086 43.4015 104.915 42.465V103.286H61.3381C60.8248 103.286 60.2676 103.368 59.7357 103.542C59.7254 103.545 59.7146 103.548 59.7046 103.551V33.6146C59.7043 32.7136 60.4373 31.9809 61.3381 31.9809ZM3.51598 37.5581C3.51598 36.9567 4.00517 36.4675 4.60663 36.4675H7.46161V67.2274H3.86382C3.74662 67.2274 3.6306 67.2325 3.51598 67.2428V37.5581ZM3.86382 80.3884C3.67209 80.3884 3.51598 80.2323 3.51598 80.0405V71.091C3.51598 70.8992 3.67209 70.7431 3.86382 70.7431H10.4982V80.3881C8.8183 80.3884 12.154 80.3884 3.86382 80.3884ZM36.9991 83.9043C37.3338 83.9043 37.7009 83.7989 38.0018 83.5893C38.0049 83.5872 38.0082 83.5858 38.0112 83.5837L45.8277 78.0793C46.6441 77.5041 47.1317 76.5646 47.1317 75.5658C47.1317 74.5671 46.6441 73.6276 45.8277 73.0524L38.0112 67.548C38.0079 67.5457 38.0042 67.544 38.0009 67.5419C37.7471 67.3654 37.4301 67.2473 37.0793 67.2316C37.0525 67.2304 37.026 67.2276 36.9991 67.2276C33.9221 67.2276 13.7132 67.2276 10.9776 67.2276V34.7093V31.9806H54.5548C55.4556 31.9806 56.1884 32.7134 56.1884 33.6142V103.551C55.702 103.387 55.124 103.286 54.5548 103.286H10.9776V83.9039C13.7121 83.9043 33.92 83.9043 36.9991 83.9043ZM35.2411 80.3884H14.0142V70.7433H35.2411V80.3884ZM43.2903 75.5658L38.7571 78.7584V72.3736L43.2903 75.5658ZM112.377 111.025C112.377 111.626 111.888 112.116 111.286 112.116H63.8131C62.338 112.116 60.9145 112.549 59.7046 113.323V107.865C60.0386 107.549 60.3039 106.802 61.3383 106.802H105.091C106.933 106.802 108.431 105.304 108.431 103.462V36.4672H111.286C111.888 36.4672 112.377 36.9564 112.377 37.5579V111.025Z" fill="#EA792D"/>
</svg>
