<svg width="138" height="119" viewBox="0 0 138 119" fill="none" xmlns="http://www.w3.org/2000/svg">
<path d="M133.096 0H4.71018C2.11312 0 0 2.11312 0 4.71018V21.2887C0 23.8986 4.03729 23.8986 4.03729 21.2887V4.71018C4.03729 4.33928 4.33901 4.03729 4.71018 4.03729H133.096C133.467 4.03729 133.769 4.33928 133.769 4.71018V103.15C133.769 103.521 133.467 103.823 133.096 103.823H107.227V99.6224H127.531C128.646 99.6224 129.549 98.7186 129.549 97.6037V76.4647C129.549 73.8548 125.512 73.8548 125.512 76.4647V95.5851H107.227V86.6285C107.293 86.6341 107.359 86.6398 107.421 86.6454C109.097 86.7927 111.181 86.976 112.625 85.5293C114.068 84.0842 113.885 81.9977 113.739 80.3212C113.581 78.5219 113.751 78.0293 115.134 76.8798C118.694 73.9191 118.761 70.749 115.134 67.734C113.751 66.5836 113.581 66.0916 113.739 64.292C114.134 59.7764 112.025 57.5635 107.421 57.968C105.625 58.1257 105.137 57.9551 103.992 56.5719C101.036 53.0029 97.8635 52.937 94.8525 56.5719C93.7069 57.9548 93.2198 58.1263 91.4232 57.968C86.9044 57.571 84.7024 59.6919 85.1056 64.292C85.2628 66.0918 85.0935 66.5836 83.7106 67.734C80.15 70.6944 80.084 73.865 83.7106 76.8798C85.0935 78.0301 85.2628 78.5221 85.1056 80.3217C84.6817 85.1581 86.9916 87.0282 91.6164 86.6288V95.5856H12.2946V12.2747H125.512V65.6986C125.512 68.3086 129.549 68.3086 129.549 65.6986V10.2561C129.549 9.14124 128.646 8.23743 127.531 8.23743H10.276C9.16089 8.23743 8.25734 9.14124 8.25734 10.2561V97.6037C8.25734 98.7186 9.16089 99.6224 10.276 99.6224H91.6164V103.823H4.71018C4.33901 103.823 4.03729 103.521 4.03729 103.15V31.5162C4.03729 28.9062 0 28.9062 0 31.5162V103.15C0 105.747 2.11312 107.86 4.71018 107.86H91.6164V116.998C91.9039 118.657 92.8607 119.267 94.4864 118.828L99.4219 116.532L104.357 118.828C105.578 119.396 107.227 118.498 107.227 116.998V107.86H133.096C135.693 107.86 137.806 105.747 137.806 103.15V4.71018C137.806 2.11285 135.693 0 133.096 0ZM91.0692 82.6232C89.0484 82.8011 88.9505 82.6929 89.127 80.6732C89.3983 77.5734 88.6854 75.7647 86.2912 73.7746C84.6532 72.4124 84.6534 72.2 86.2912 70.8378C88.6854 68.8477 89.3986 67.039 89.127 63.9394C88.9505 61.9194 89.0484 61.8123 91.0692 61.9891C94.1693 62.2623 95.9756 61.544 97.9612 59.1466C99.318 57.5091 99.5255 57.5091 100.882 59.1466C102.868 61.544 104.674 62.2613 107.774 61.9891C109.795 61.8112 109.893 61.9194 109.716 63.9392C109.445 67.039 110.158 68.8474 112.552 70.8375C114.19 72.1997 114.191 72.4126 112.552 73.7746C110.158 75.7649 109.445 77.5728 109.716 80.6727C109.894 82.6924 109.795 82.8009 107.774 82.6232C106.507 82.5118 105.068 82.3853 103.802 82.9112C102.577 83.4202 101.715 84.4599 100.882 85.4657C100.49 85.9395 99.7734 86.8042 99.4213 86.959C99.0695 86.8042 98.3533 85.9395 97.9609 85.4657C97.1279 84.4602 96.2666 83.4202 95.0409 82.9112C93.7344 82.5129 92.4104 82.4168 91.0692 82.6232ZM100.273 112.476C99.7333 112.225 99.1105 112.225 98.5705 112.476L95.6537 113.833V88.9768C96.6116 90.03 97.7935 91.0079 99.4219 91.0079C101.05 91.0079 102.232 90.0303 103.19 88.9771V113.833L100.273 112.476Z" fill="#EA792D"/>
<path d="M26.1786 29.1722H95.7673C98.3773 29.1722 98.3773 25.1349 95.7673 25.1349H26.1786C23.5684 25.1349 23.5684 29.1722 26.1786 29.1722Z" fill="#EA792D"/>
<path d="M113.646 39.4317C113.646 38.3169 112.743 37.4131 111.628 37.4131H26.1786C23.5686 37.4131 23.5686 41.4503 26.1786 41.4503H111.628C112.743 41.4503 113.646 40.5465 113.646 39.4317Z" fill="#EA792D"/>
<path d="M76.7454 51.7097C76.7454 50.5948 75.8419 49.691 74.7268 49.691H26.1786C23.5686 49.691 23.5686 53.7283 26.1786 53.7283H74.7268C75.8416 53.7283 76.7454 52.8245 76.7454 51.7097Z" fill="#EA792D"/>
<path d="M50.2377 79.8474C49.1371 79.8493 48.0363 79.8507 46.9357 79.8515C44.8183 79.8531 43.6526 79.2887 43.2201 77.0434C42.8252 74.9938 39.8689 75.2549 39.3271 77.0434C39.0872 77.8355 37.8761 80.1031 36.818 79.9177C36.2574 79.8195 36.0124 78.9547 35.8052 78.5068C35.4017 77.635 35.1078 76.711 34.8562 75.7851C33.7935 71.8733 33.5814 67.7889 32.9166 63.8032C32.5312 61.492 29.0083 62.1455 28.9515 64.3399C28.7706 71.3301 27.6278 78.2245 25.1392 84.7765C24.2157 87.2077 28.1171 88.259 29.0322 85.8498C29.9918 83.3236 30.7535 80.7367 31.3445 78.1114C31.6616 79.068 32.0397 80.0063 32.5013 80.919C33.6802 83.2487 36.0846 84.6271 38.6571 83.5908C39.5752 83.221 40.4128 82.5745 41.1258 81.7878C43.0357 83.9903 45.8772 83.8904 48.528 83.8872C52.5242 83.8821 56.5203 83.8726 60.5167 83.8616C63.1143 83.8543 63.1191 79.817 60.5167 79.8243C57.0903 79.834 53.664 79.8418 50.2377 79.8474Z" fill="#EA792D"/>
<path d="M99.4219 80.1909C103.769 80.1909 107.307 76.6539 107.307 72.3063C107.307 67.9587 103.769 64.4218 99.4219 64.4218C95.0745 64.4218 91.5373 67.959 91.5373 72.3063C91.5373 76.6537 95.0742 80.1909 99.4219 80.1909ZM99.4219 68.459C101.543 68.459 103.269 70.1851 103.269 72.3063C103.269 74.4275 101.543 76.1536 99.4219 76.1536C97.3004 76.1536 95.5746 74.4278 95.5746 72.3063C95.5746 70.1848 97.3004 68.459 99.4219 68.459Z" fill="#EA792D"/>
</svg>
