<svg width="32" height="36" viewBox="0 0 32 36" fill="none" xmlns="http://www.w3.org/2000/svg">
<path d="M23 20H17.75C16.7875 20 16 20.7875 16 21.75V27C16 27.9625 16.7875 28.75 17.75 28.75H23C23.9625 28.75 24.75 27.9625 24.75 27V21.75C24.75 20.7875 23.9625 20 23 20ZM23 2.5V4.25H9V2.5C9 1.5375 8.2125 0.75 7.25 0.75C6.2875 0.75 5.5 1.5375 5.5 2.5V4.25H3.75C1.8075 4.25 0.2675 5.825 0.2675 7.75L0.25 32.25C0.25 34.175 1.8075 35.75 3.75 35.75H28.25C30.175 35.75 31.75 34.175 31.75 32.25V7.75C31.75 5.825 30.175 4.25 28.25 4.25H26.5V2.5C26.5 1.5375 25.7125 0.75 24.75 0.75C23.7875 0.75 23 1.5375 23 2.5ZM26.5 32.25H5.5C4.5375 32.25 3.75 31.4625 3.75 30.5V13H28.25V30.5C28.25 31.4625 27.4625 32.25 26.5 32.25Z" fill="white"/>
</svg>
